<svg width="43" height="42" viewBox="0 0 43 42" fill="none" xmlns="http://www.w3.org/2000/svg">
<g id="material-symbols:cloud-upload">
<path id="Vector" d="M18.7583 24.8485L17.6541 25.9182L16.9472 26.6031L16.2512 25.9071L13.8012 23.4571L13.0941 22.75L13.8012 22.0429L20.8012 15.0429L21.5083 14.3358L22.2154 15.0429L29.2154 22.0429L29.9225 22.75L29.2154 23.4571L26.7654 25.9071L26.0694 26.6031L25.3625 25.9182L24.2583 24.8485V34H32.8833C34.8087 34 36.4133 33.3378 37.7555 31.9966C39.0963 30.6545 39.7583 29.0502 39.7583 27.125C39.7583 25.3554 39.1835 23.8336 38.0194 22.5147L18.7583 24.8485ZM18.7583 24.8485V34H11.8833C9.48757 34 7.47177 33.1815 5.7799 31.5285L5.77968 31.5283C4.09254 29.8809 3.2583 27.8938 3.2583 25.5063C3.2583 23.449 3.8725 21.6372 5.10669 20.0353C6.33309 18.4436 7.92273 17.4338 9.91409 16.9884L10.5027 16.8567L10.6608 16.2747C11.3329 13.8014 12.6662 11.8173 14.6759 10.2899C16.6878 8.76086 18.954 8 21.5083 8C24.6602 8 27.2989 9.0861 29.4847 11.2719C31.6717 13.4589 32.7583 16.0983 32.7583 19.25V20.1408L33.6431 20.2433C35.4134 20.4486 36.8565 21.1998 38.0189 22.514L18.7583 24.8485Z" stroke="white" stroke-width="2"/>
</g>
</svg>
