<svg width="38" height="37" viewBox="0 0 38 37" fill="none" xmlns="http://www.w3.org/2000/svg">
<g id="bi:globe-americas">
<path id="Vector" d="M19 0C14.0935 0 9.38795 1.9491 5.91852 5.41852C2.4491 8.88795 0.5 13.5935 0.5 18.5C0.5 23.4065 2.4491 28.1121 5.91852 31.5815C9.38795 35.0509 14.0935 37 19 37C23.9065 37 28.6121 35.0509 32.0815 31.5815C35.5509 28.1121 37.5 23.4065 37.5 18.5C37.5 13.5935 35.5509 8.88795 32.0815 5.41852C28.6121 1.9491 23.9065 0 19 0ZM5.2175 10.0039C5.96906 13.0772 11.0728 15.8776 13.8131 17.3807C14.9231 17.9889 15.6469 18.3844 15.5312 18.5C15.3462 18.685 15.1566 18.8654 14.9716 19.0411C14.0096 19.9569 13.1517 20.7732 13.2188 21.9688C13.2997 23.4349 14.6479 23.8743 16.0261 24.3206C17.3604 24.7553 18.7271 25.1993 19 26.5938C19.1896 27.5581 18.8266 28.8785 18.4913 30.1088C17.9941 31.9171 17.5524 33.5312 19 33.5312C22.4688 32.375 27.7829 26.1636 28.25 21.9688C28.5691 19.0943 23.625 17.3438 20.1562 16.1875C19.0509 15.8175 18.4103 16.3748 17.8669 16.8442C17.4691 17.1911 17.1222 17.4894 16.6875 17.3438C15.6584 17.0015 10.9062 12.7188 13.2188 11.5625C15.0225 10.6606 15.4203 11.1671 16.0562 11.9834C16.2366 12.2123 16.4331 12.4644 16.6875 12.7188C18.0958 13.4218 18.2184 12.4135 18.3594 11.2549C18.4496 10.5103 18.5467 9.70325 19 9.25C20.0036 8.24638 21.9253 7.42081 23.6898 6.66C25.3363 5.95238 26.8463 5.30256 27.3412 4.625C30.0913 6.27874 32.2878 8.71255 33.6517 11.6173C35.0157 14.522 35.4855 17.7666 35.0015 20.9389C34.5175 24.1113 33.1015 27.0681 30.9334 29.434C28.7654 31.7999 25.943 33.4679 22.8249 34.2264C19.7068 34.9848 16.4336 34.7993 13.4211 33.6936C10.4086 32.5878 7.79279 30.6115 5.90585 28.0159C4.0189 25.4203 2.946 22.3224 2.82344 19.1157C2.70088 15.909 3.53418 12.736 5.2175 10.0039Z" fill="#FFFEFE"/>
</g>
</svg>
