<svg width="30" height="30" viewBox="0 0 30 30" fill="none" xmlns="http://www.w3.org/2000/svg">
<path d="M24.5625 11.3L18.5125 10.775L16.15 5.2125C15.725 4.2 14.275 4.2 13.85 5.2125L11.4875 10.7875L5.45003 11.3C4.35003 11.3875 3.90003 12.7625 4.73753 13.4875L9.32503 17.4625L7.95003 23.3625C7.70003 24.4375 8.86253 25.2875 9.81253 24.7125L15 21.5875L20.1875 24.725C21.1375 25.3 22.3 24.45 22.05 23.375L20.675 17.4625L25.2625 13.4875C26.1 12.7625 25.6625 11.3875 24.5625 11.3ZM15 19.25L10.3 22.0875L11.55 16.7375L7.40003 13.1375L12.875 12.6625L15 7.625L17.1375 12.675L22.6125 13.15L18.4625 16.75L19.7125 22.1L15 19.25Z" fill="black"/>
</svg>
