<svg width="95" height="94" viewBox="0 0 95 94" fill="none" xmlns="http://www.w3.org/2000/svg">
<path d="M92.9256 60.1894C90.1408 57.2225 84.4509 55.507 76.3875 55.507C72.0723 55.507 67.0844 55.9359 61.653 56.9464C58.3334 53.6724 55.3124 50.1088 52.626 46.2979C50.5463 43.4074 48.725 40.3466 47.0565 37.3327C50.2378 27.3893 51.783 19.2788 51.783 13.4361C51.783 6.88845 49.4124 0.0646362 42.618 0.0646362C40.5206 0.0646362 38.4408 1.33364 37.3246 3.20189C34.2637 8.7097 35.6414 20.7975 40.9201 32.7296C38.9067 38.8165 36.6866 44.8331 34.2637 50.7688C31.9698 56.2142 29.4532 61.563 26.7202 66.8017C11.4364 73.0145 1.53703 80.2496 0.620534 85.9425C0.206346 88.0839 0.911346 90.0432 2.40947 91.6177C2.92941 92.0466 4.88872 93.7445 8.2081 93.7445C18.3513 93.7445 29.032 76.9919 34.4782 66.8781C38.6406 65.471 42.8177 64.1844 46.9772 62.9007C51.3728 61.687 55.8256 60.6909 60.3193 59.9162C71.0295 69.7245 80.4677 71.2696 85.2117 71.2696C91.0573 71.2696 93.1371 68.8521 93.8421 66.8781C94.9437 64.3224 94.1182 61.5083 92.8639 60.0543L92.9403 60.207L92.9256 60.1894ZM87.5089 64.3195C87.0947 66.4463 85.0002 67.868 82.0774 67.868C81.252 67.868 80.547 67.7153 79.7068 67.5919C74.3812 66.3053 69.3962 63.5998 64.423 59.3287C68.2806 58.681 72.1851 58.3538 76.0967 58.3505C78.9872 58.3505 81.4987 58.4886 83.179 58.9174C85.106 59.3316 88.1668 60.63 87.4795 64.3342H87.5558L87.5089 64.3195ZM58.0428 57.6338C54.172 58.4239 50.3252 59.3271 46.5072 60.3421C43.1862 61.2441 39.8954 62.2542 36.6402 63.3707C38.3304 60.0234 39.9067 56.6198 41.3666 53.1658C43.0498 49.1738 44.4275 45.0583 45.8198 41.2308C47.1828 43.6336 48.7103 46.0512 50.2408 48.2073C52.7494 51.6178 55.3667 54.8637 57.9987 57.6925V57.6161L58.0428 57.6338ZM39.8185 4.82045C40.0635 4.31919 40.441 3.89458 40.9102 3.59268C41.3793 3.29078 41.9222 3.12312 42.4799 3.10789C45.4027 3.10789 45.952 6.50364 45.952 9.2267C45.952 13.8004 44.5597 20.7476 42.1891 28.6729C38.0267 17.6279 37.7535 8.38657 39.8332 4.82045H39.8185ZM24.5347 71.0053C17.4524 82.9227 10.6433 90.3135 6.46616 90.3135C5.65541 90.3135 4.95041 90.0226 4.4011 89.6085C3.56097 88.7507 3.14678 87.7578 3.42291 86.624C4.26303 82.3558 12.1884 76.3897 24.5523 71.0023L24.5347 71.0053Z" fill="black"/>
</svg>
