<svg width="17" height="20" viewBox="0 0 17 20" fill="none" xmlns="http://www.w3.org/2000/svg">
<g id="Group">
<path id="Vector" d="M12.0294 1.17647H5.94118C5.58824 1.17647 5.2353 1.35294 4.9706 1.61765C4.70589 1.88235 4.52942 2.2353 4.52942 2.58824V13.8824C4.52942 14.2353 4.70589 14.5882 4.9706 14.8529C5.2353 15.1176 5.58824 15.2941 5.94118 15.2941H14.5882C14.9412 15.2941 15.2941 15.1176 15.5588 14.8529C15.8235 14.5882 16 14.2353 16 13.8824V5.14706L12.0294 1.17647Z" stroke="#FDF8F8" stroke-width="2" stroke-linecap="round" stroke-linejoin="round"/>
<path id="Vector_2" d="M1 6.11765V17.4118C1 17.7647 1.17647 18.1176 1.44118 18.3824C1.70588 18.6471 2.05882 18.8235 2.41176 18.8235H11.0588M11.5882 1.17647V5.58824H16" stroke="#FDF8F8" stroke-width="2" stroke-linecap="round" stroke-linejoin="round"/>
</g>
</svg>
