<svg width="68" height="19" viewBox="0 0 68 19" fill="none" xmlns="http://www.w3.org/2000/svg">
<rect width="68" height="19" rx="9.5" fill="white"/>
<path d="M17.9268 15C17.9268 14.5733 17.9588 14.1733 18.0228 13.8C18.0974 13.4267 18.2254 13.0693 18.4068 12.728C18.5988 12.3867 18.8654 12.0613 19.2068 11.752C19.5481 11.432 19.9908 11.1227 20.5348 10.824C20.8548 10.6427 21.1748 10.472 21.4948 10.312C21.8254 10.152 22.1294 9.98133 22.4068 9.8C22.6948 9.61867 22.9241 9.42133 23.0948 9.208C23.2654 8.984 23.3508 8.728 23.3508 8.44C23.3508 8.19467 23.2761 7.96 23.1268 7.736C22.9881 7.50133 22.7748 7.31467 22.4868 7.176C22.2094 7.02667 21.8628 6.952 21.4468 6.952C21.1268 6.952 20.8334 6.99467 20.5668 7.08C20.3108 7.16533 20.0761 7.27733 19.8628 7.416C19.6601 7.544 19.4788 7.68267 19.3188 7.832C19.1694 7.97067 19.0414 8.09867 18.9348 8.216L18.0548 7.224C18.1401 7.128 18.2841 7 18.4868 6.84C18.6894 6.66933 18.9454 6.49867 19.2548 6.328C19.5641 6.15733 19.9214 6.01333 20.3268 5.896C20.7428 5.768 21.1961 5.704 21.6868 5.704C22.3481 5.704 22.9134 5.82133 23.3828 6.056C23.8628 6.28 24.2308 6.58933 24.4868 6.984C24.7428 7.368 24.8708 7.8 24.8708 8.28C24.8708 8.696 24.7801 9.05867 24.5988 9.368C24.4281 9.67733 24.2041 9.94933 23.9268 10.184C23.6601 10.4187 23.3774 10.6213 23.0788 10.792C22.7908 10.952 22.5294 11.0907 22.2948 11.208C21.8148 11.4427 21.4041 11.656 21.0628 11.848C20.7214 12.04 20.4388 12.232 20.2148 12.424C20.0014 12.6053 19.8254 12.7973 19.6868 13C19.5588 13.2027 19.4628 13.4427 19.3988 13.72H25.0468V15H17.9268ZM34.9521 15.096C34.3868 15.096 33.8641 14.984 33.3841 14.76C32.9148 14.5253 32.5095 14.2107 32.1681 13.816C31.8268 13.4107 31.5601 12.952 31.3681 12.44C31.1868 11.928 31.0961 11.3947 31.0961 10.84C31.0961 10.2533 31.1868 9.69867 31.3681 9.176C31.5601 8.65333 31.8268 8.19467 32.1681 7.8C32.5201 7.39467 32.9308 7.08 33.4001 6.856C33.8695 6.62133 34.3921 6.504 34.9681 6.504C35.6615 6.504 36.2641 6.67467 36.7761 7.016C37.2988 7.35733 37.7361 7.78933 38.0881 8.312V6.648H39.3361V14.904C39.3361 15.6933 39.1441 16.36 38.7601 16.904C38.3868 17.448 37.8748 17.8587 37.2241 18.136C36.5841 18.424 35.8695 18.568 35.0801 18.568C34.1415 18.568 33.3735 18.4027 32.7761 18.072C32.1788 17.7413 31.6828 17.2933 31.2881 16.728L32.1041 16.008C32.4348 16.4987 32.8615 16.8667 33.3841 17.112C33.9175 17.3573 34.4828 17.48 35.0801 17.48C35.5921 17.48 36.0615 17.384 36.4881 17.192C36.9255 17.0107 37.2721 16.728 37.5281 16.344C37.7948 15.96 37.9281 15.48 37.9281 14.904V13.432C37.6188 13.944 37.1921 14.3493 36.6481 14.648C36.1148 14.9467 35.5495 15.096 34.9521 15.096ZM35.3841 13.944C35.6828 13.944 35.9708 13.8907 36.2481 13.784C36.5255 13.6773 36.7815 13.5387 37.0161 13.368C37.2508 13.1867 37.4481 12.984 37.6081 12.76C37.7681 12.536 37.8748 12.3067 37.9281 12.072V9.672C37.7788 9.288 37.5655 8.952 37.2881 8.664C37.0108 8.36533 36.6961 8.136 36.3441 7.976C35.9921 7.80533 35.6295 7.72 35.2561 7.72C34.8295 7.72 34.4455 7.81067 34.1041 7.992C33.7735 8.17333 33.4908 8.41867 33.2561 8.728C33.0215 9.02667 32.8401 9.36267 32.7121 9.736C32.5841 10.1093 32.5201 10.488 32.5201 10.872C32.5201 11.288 32.5948 11.6827 32.7441 12.056C32.8935 12.4187 33.0961 12.744 33.3521 13.032C33.6081 13.32 33.9121 13.544 34.2641 13.704C34.6161 13.864 34.9895 13.944 35.3841 13.944ZM46.2165 15.16C45.5658 15.16 44.9738 15 44.4405 14.68C43.9072 14.36 43.4858 13.944 43.1765 13.432V15H41.9285V3.32H43.3365V8.312C43.6885 7.768 44.1205 7.33067 44.6325 7C45.1445 6.66933 45.7418 6.504 46.4245 6.504C47.0005 6.504 47.5178 6.62667 47.9765 6.872C48.4352 7.10667 48.8245 7.432 49.1445 7.848C49.4752 8.25333 49.7258 8.71733 49.8965 9.24C50.0778 9.752 50.1685 10.2907 50.1685 10.856C50.1685 11.4427 50.0672 11.9973 49.8645 12.52C49.6725 13.032 49.3952 13.4907 49.0325 13.896C48.6698 14.2907 48.2485 14.6 47.7685 14.824C47.2992 15.048 46.7818 15.16 46.2165 15.16ZM45.8645 13.944C46.2805 13.944 46.6645 13.8587 47.0165 13.688C47.3685 13.5173 47.6725 13.288 47.9285 13C48.1845 12.712 48.3818 12.3813 48.5205 12.008C48.6592 11.6347 48.7285 11.2507 48.7285 10.856C48.7285 10.312 48.6112 9.8 48.3765 9.32C48.1525 8.84 47.8325 8.456 47.4165 8.168C47.0112 7.86933 46.5365 7.72 45.9925 7.72C45.5978 7.72 45.2298 7.81067 44.8885 7.992C44.5472 8.17333 44.2432 8.41333 43.9765 8.712C43.7205 9 43.5072 9.32 43.3365 9.672V12.088C43.3898 12.3547 43.5018 12.6 43.6725 12.824C43.8432 13.048 44.0512 13.2453 44.2965 13.416C44.5418 13.576 44.7978 13.704 45.0645 13.8C45.3418 13.896 45.6085 13.944 45.8645 13.944Z" fill="white"/>
</svg>
