<svg width="56" height="56" viewBox="0 0 56 56" fill="none" xmlns="http://www.w3.org/2000/svg">
<g id="ion:folder">
<path id="Vector" d="M54.25 16.625C54.25 15.0006 53.6047 13.4426 52.456 12.294C51.3074 11.1453 49.7495 10.5 48.125 10.5H24.0745C23.5566 10.5017 23.0499 10.3494 22.6187 10.0625L19.5781 8.02923C18.5712 7.35593 17.3867 6.99764 16.1755 7.00001H7.875C6.25055 7.00001 4.69263 7.64532 3.54397 8.79398C2.39531 9.94264 1.75 11.5006 1.75 13.125V18.375C1.75 18.6071 1.84219 18.8296 2.00628 18.9937C2.17038 19.1578 2.39294 19.25 2.625 19.25H53.375C53.6071 19.25 53.8296 19.1578 53.9937 18.9937C54.1578 18.8296 54.25 18.6071 54.25 18.375V16.625ZM1.75 42.875C1.75 44.4995 2.39531 46.0574 3.54397 47.206C4.69263 48.3547 6.25055 49 7.875 49H48.125C49.7495 49 51.3074 48.3547 52.456 47.206C53.6047 46.0574 54.25 44.4995 54.25 42.875V23.625C54.25 23.3929 54.1578 23.1704 53.9937 23.0063C53.8296 22.8422 53.6071 22.75 53.375 22.75H2.625C2.39294 22.75 2.17038 22.8422 2.00628 23.0063C1.84219 23.1704 1.75 23.3929 1.75 23.625V42.875Z" fill="white"/>
</g>
</svg>
