<svg width="24" height="25" viewBox="0 0 24 25" fill="none" xmlns="http://www.w3.org/2000/svg">
<path d="M12.367 2.953C12.1512 2.95365 11.9443 3.03914 11.791 3.191L0.241004 14.713C0.164301 14.7896 0.103519 14.8807 0.0621573 14.9809C0.0207958 15.0812 -0.000327605 15.1886 3.84083e-06 15.297V15.363C3.84083e-06 15.04 0.209004 14.755 0.516004 14.654L7.791 12.336C8.16335 12.2171 8.50163 12.0104 8.77732 11.7333C9.053 11.4563 9.258 11.1169 9.375 10.744L11.693 3.477C11.7422 3.32495 11.8382 3.19236 11.9674 3.09823C12.0966 3.0041 12.2522 2.95327 12.412 2.953H12.367ZM3.84083e-06 15.363V20.41C3.84083e-06 21.314 0.733004 22.047 1.637 22.047H22.363C23.267 22.047 24 21.314 24 20.41V4.59C24 3.686 23.267 2.953 22.363 2.953H12.412V3.453L12.5 13.314C12.51 14.489 11.538 15.454 10.363 15.454L3.84083e-06 15.363ZM12 4.16L9.852 10.895C9.7104 11.3439 9.46311 11.7531 9.13091 12.0866C8.79872 12.42 8.39133 12.6688 7.943 12.812L1.227 14.953H10.363C11.268 14.953 12.001 14.219 12 13.314V4.16ZM1.637 5.135C0.732004 5.135 -0.000996159 5.869 3.84083e-06 6.773V14.246L9.135 5.135H1.637Z" fill="#FFFCFC"/>
</svg>
