<svg width="57" height="31" viewBox="0 0 57 31" fill="none" xmlns="http://www.w3.org/2000/svg">
<rect x="0.5" y="8.5" width="32" height="22" rx="4.5" fill="white"/>
<path d="M15.2591 13.22H17.7791L22.4771 26H19.9211L18.7331 22.814H14.2691L13.0991 26H10.5431L15.2591 13.22ZM18.2831 21.068L16.5191 15.794L14.6831 21.068H18.2831Z" fill="black"/>
<rect x="0.5" y="8.5" width="32" height="22" rx="4.5" stroke="white"/>
<rect x="25.5" y="0.5" width="31" height="22" rx="4.5" fill="white"/>
<path d="M36.7246 18V5.22H42.1426C42.7306 5.22 43.2706 5.34 43.7626 5.58C44.2546 5.82 44.6806 6.144 45.0406 6.552C45.4126 6.96 45.7006 7.416 45.9046 7.92C46.1086 8.424 46.2106 8.94 46.2106 9.468C46.2106 10.188 46.0426 10.872 45.7066 11.52C45.3706 12.168 44.9086 12.696 44.3206 13.104C43.7326 13.512 43.0366 13.716 42.2326 13.716H39.2086V18H36.7246ZM39.2086 11.538H42.0886C42.3886 11.538 42.6586 11.454 42.8986 11.286C43.1386 11.118 43.3306 10.878 43.4746 10.566C43.6186 10.242 43.6906 9.876 43.6906 9.468C43.6906 9.024 43.6066 8.646 43.4386 8.334C43.2826 8.022 43.0726 7.788 42.8086 7.632C42.5566 7.476 42.2806 7.398 41.9806 7.398H39.2086V11.538Z" fill="black"/>
<rect x="25.5" y="0.5" width="31" height="22" rx="4.5" stroke="white"/>
</svg>
