<svg width="32" height="23" viewBox="0 0 32 23" fill="none" xmlns="http://www.w3.org/2000/svg">
<rect x="0.5" y="0.5" width="31" height="22" rx="4.5" fill="white"/>
<path d="M11.7246 18V5.22H17.1426C17.7306 5.22 18.2706 5.34 18.7626 5.58C19.2546 5.82 19.6806 6.144 20.0406 6.552C20.4126 6.96 20.7006 7.416 20.9046 7.92C21.1086 8.424 21.2106 8.94 21.2106 9.468C21.2106 10.188 21.0426 10.872 20.7066 11.52C20.3706 12.168 19.9086 12.696 19.3206 13.104C18.7326 13.512 18.0366 13.716 17.2326 13.716H14.2086V18H11.7246ZM14.2086 11.538H17.0886C17.3886 11.538 17.6586 11.454 17.8986 11.286C18.1386 11.118 18.3306 10.878 18.4746 10.566C18.6186 10.242 18.6906 9.876 18.6906 9.468C18.6906 9.024 18.6066 8.646 18.4386 8.334C18.2826 8.022 18.0726 7.788 17.8086 7.632C17.5566 7.476 17.2806 7.398 16.9806 7.398H14.2086V11.538Z" fill="black"/>
<rect x="0.5" y="0.5" width="31" height="22" rx="4.5" stroke="white"/>
</svg>
