<svg width="25" height="24" viewBox="0 0 25 24" fill="none" xmlns="http://www.w3.org/2000/svg">
<g id="ic:outline-share">
<path id="Vector" d="M18.0073 16.08C17.2473 16.08 16.5673 16.38 16.0473 16.85L8.91732 12.7C8.96732 12.47 9.00732 12.24 9.00732 12C9.00732 11.76 8.96732 11.53 8.91732 11.3L15.9673 7.19C16.5073 7.69 17.2173 8 18.0073 8C19.6673 8 21.0073 6.66 21.0073 5C21.0073 3.34 19.6673 2 18.0073 2C16.3473 2 15.0073 3.34 15.0073 5C15.0073 5.24 15.0473 5.47 15.0973 5.7L8.04732 9.81C7.50732 9.31 6.79732 9 6.00732 9C4.34732 9 3.00732 10.34 3.00732 12C3.00732 13.66 4.34732 15 6.00732 15C6.79732 15 7.50732 14.69 8.04732 14.19L15.1673 18.35C15.1173 18.56 15.0873 18.78 15.0873 19C15.0873 20.61 16.3973 21.92 18.0073 21.92C19.6173 21.92 20.9273 20.61 20.9273 19C20.9273 17.39 19.6173 16.08 18.0073 16.08ZM18.0073 4C18.5573 4 19.0073 4.45 19.0073 5C19.0073 5.55 18.5573 6 18.0073 6C17.4573 6 17.0073 5.55 17.0073 5C17.0073 4.45 17.4573 4 18.0073 4ZM6.00732 13C5.45732 13 5.00732 12.55 5.00732 12C5.00732 11.45 5.45732 11 6.00732 11C6.55732 11 7.00732 11.45 7.00732 12C7.00732 12.55 6.55732 13 6.00732 13ZM18.0073 20.02C17.4573 20.02 17.0073 19.57 17.0073 19.02C17.0073 18.47 17.4573 18.02 18.0073 18.02C18.5573 18.02 19.0073 18.47 19.0073 19.02C19.0073 19.57 18.5573 20.02 18.0073 20.02Z" fill="white"/>
</g>
</svg>
