<svg width="34" height="35" viewBox="0 0 34 35" fill="none" xmlns="http://www.w3.org/2000/svg">
<g id="ion:folder-open">
<path id="Vector" d="M27.0939 6.875H16.7418C16.4274 6.87601 16.1198 6.78355 15.858 6.60937L14.0119 5.37488C13.4006 4.96609 12.6814 4.74856 11.946 4.75H6.90641C5.92046 4.75105 4.9752 5.14319 4.27803 5.84036C3.58085 6.53753 3.18872 7.4828 3.18766 8.46875V10.0625H30.8127C30.8127 8.01187 29.1445 6.875 27.0939 6.875ZM28.1398 30.25H5.86052C4.88475 30.2489 3.94851 29.8643 3.25371 29.1792C2.55891 28.4941 2.16122 27.5634 2.14641 26.5877L1.07462 15.6479V15.6293C1.03952 15.1909 1.09555 14.7499 1.23919 14.3341C1.38283 13.9184 1.61097 13.5368 1.90925 13.2135C2.20753 12.8903 2.56949 12.6322 2.97236 12.4556C3.37523 12.279 3.81029 12.1877 4.25016 12.1875H29.7568C30.1966 12.1879 30.6315 12.2794 31.0342 12.456C31.4369 12.6327 31.7987 12.8908 32.0968 13.214C32.395 13.5373 32.623 13.9188 32.7666 14.3344C32.9101 14.7501 32.9661 15.191 32.931 15.6293V15.6479L31.8539 26.5877C31.8391 27.5634 31.4414 28.4941 30.7466 29.1792C30.0518 29.8643 29.1156 30.2489 28.1398 30.25Z" fill="#FFFEFE"/>
</g>
</svg>
