<svg width="162" height="69" viewBox="0 0 162 69" fill="none" xmlns="http://www.w3.org/2000/svg">
<g id="Group 7701">
<path id="Vector" d="M81.9065 40.621C81.6232 40.621 81.3575 40.5413 81.1095 40.3818C80.8791 40.2046 80.7199 39.9922 80.6313 39.7441L76.6988 27.9455C76.557 27.3964 76.557 26.9536 76.6988 26.617C76.8583 26.2624 77.1946 26.0853 77.7083 26.0853C78.0449 26.0853 78.3197 26.183 78.5321 26.3778C78.7625 26.5549 78.9484 26.865 79.0902 27.3079L82.4381 37.7777H81.5081L84.6701 27.0951C84.7586 26.7941 84.909 26.5549 85.1217 26.3778C85.3341 26.183 85.6266 26.0853 85.9985 26.0853C86.3527 26.0853 86.6363 26.183 86.8488 26.3778C87.0791 26.5549 87.2298 26.7941 87.3004 27.0951L89.8777 37.1398H89.4793L92.6145 27.3079C92.8626 26.4928 93.3233 26.0853 93.9962 26.0853C94.4922 26.0853 94.8288 26.2624 95.0059 26.617C95.1831 26.9536 95.1742 27.3964 94.9795 27.9455L91.047 39.7441C90.9761 39.9922 90.8254 40.2046 90.5953 40.3818C90.3649 40.5413 90.0993 40.621 89.798 40.621C89.5147 40.621 89.249 40.5413 89.001 40.3818C88.7529 40.2046 88.5935 39.9922 88.5228 39.7441L85.786 29.6197H86.0517L83.1819 39.7441C83.111 39.9922 82.9518 40.2046 82.7038 40.3818C82.4734 40.5413 82.2078 40.621 81.9065 40.621ZM104.2 40.7272C102.729 40.7272 101.419 40.4174 100.267 39.7971C99.1335 39.1595 98.239 38.2915 97.5835 37.193C96.946 36.077 96.627 34.8014 96.627 33.3664C96.627 31.9137 96.928 30.6384 97.5306 29.54C98.1505 28.4239 99.0008 27.5559 100.081 26.9357C101.162 26.298 102.402 25.9791 103.801 25.9791C105.183 25.9791 106.37 26.2892 107.362 26.9092C108.354 27.5115 109.107 28.353 109.62 29.4335C110.152 30.4966 110.417 31.7277 110.417 33.1274C110.417 33.4641 110.302 33.7474 110.072 33.9778C109.842 34.1903 109.549 34.2965 109.195 34.2965H98.4871V32.1706H109.115L108.026 32.9147C108.008 32.029 107.831 31.2407 107.495 30.5498C107.158 29.841 106.68 29.2831 106.06 28.8756C105.44 28.4681 104.687 28.2645 103.801 28.2645C102.791 28.2645 101.924 28.4858 101.197 28.9289C100.489 29.3717 99.9485 29.9829 99.5763 30.7623C99.2044 31.5241 99.0184 32.3921 99.0184 33.3664C99.0184 34.3409 99.2397 35.2089 99.6828 35.9707C100.126 36.7325 100.737 37.3349 101.516 37.7777C102.295 38.2205 103.19 38.4421 104.2 38.4421C104.749 38.4421 105.307 38.3444 105.874 38.1496C106.458 37.9372 106.928 37.698 107.282 37.4323C107.548 37.2375 107.831 37.1398 108.132 37.1398C108.451 37.1221 108.726 37.2107 108.956 37.4055C109.257 37.6715 109.416 37.9637 109.434 38.2826C109.452 38.6013 109.31 38.8761 109.009 39.1062C108.407 39.5847 107.654 39.9743 106.75 40.2756C105.865 40.5766 105.015 40.7272 104.2 40.7272ZM115.256 40.1161L113.449 38.5218L122.483 26.5902L124.263 28.1847L115.256 40.1161ZM114.459 40.621C113.626 40.621 113.21 40.2046 113.21 39.3719C113.21 38.5395 113.626 38.1231 114.459 38.1231H123.519C124.352 38.1231 124.768 38.5395 124.768 39.3719C124.768 40.2046 124.352 40.621 123.519 40.621H114.459ZM114.193 28.5834C113.36 28.5834 112.944 28.1671 112.944 27.3344C112.944 26.5017 113.36 26.0853 114.193 26.0853H123.253C124.086 26.0853 124.502 26.5017 124.502 27.3344C124.502 28.1671 124.086 28.5834 123.253 28.5834H114.193ZM135.53 40.7272C134.149 40.7272 132.908 40.4085 131.81 39.7706C130.712 39.1151 129.844 38.2294 129.206 37.1133C128.569 35.9972 128.241 34.7393 128.223 33.3399V21.2226C128.223 20.8151 128.347 20.4873 128.595 20.2392C128.861 19.9912 129.189 19.8673 129.578 19.8673C129.986 19.8673 130.313 19.9912 130.561 20.2392C130.81 20.4873 130.933 20.8151 130.933 21.2226V28.3972C131.553 27.6533 132.297 27.0686 133.165 26.6435C134.051 26.2006 135.017 25.9791 136.062 25.9791C137.355 25.9791 138.515 26.3069 139.542 26.9624C140.57 27.6001 141.376 28.4769 141.96 29.593C142.563 30.6914 142.864 31.9405 142.864 33.3399C142.864 34.7393 142.536 35.9972 141.881 37.1133C141.243 38.2294 140.375 39.1151 139.277 39.7706C138.178 40.4085 136.93 40.7272 135.53 40.7272ZM135.53 38.3356C136.434 38.3356 137.24 38.1231 137.948 37.698C138.657 37.2551 139.215 36.6528 139.622 35.891C140.047 35.1292 140.26 34.2788 140.26 33.3399C140.26 32.3833 140.047 31.5329 139.622 30.7888C139.215 30.0449 138.657 29.4603 137.948 29.0351C137.24 28.5922 136.434 28.3707 135.53 28.3707C134.644 28.3707 133.838 28.5922 133.112 29.0351C132.404 29.4603 131.846 30.0449 131.438 30.7888C131.031 31.5329 130.827 32.3833 130.827 33.3399C130.827 34.2788 131.031 35.1292 131.438 35.891C131.846 36.6528 132.404 37.2551 133.112 37.698C133.838 38.1231 134.644 38.3356 135.53 38.3356ZM153.495 40.7272C152.061 40.7272 150.794 40.4174 149.696 39.7971C148.597 39.1595 147.729 38.2915 147.092 37.193C146.472 36.077 146.162 34.8014 146.162 33.3664C146.162 31.9137 146.472 30.6384 147.092 29.54C147.729 28.4239 148.597 27.5559 149.696 26.9357C150.794 26.298 152.061 25.9791 153.495 25.9791C154.912 25.9791 156.17 26.298 157.269 26.9357C158.367 27.5559 159.226 28.4239 159.846 29.54C160.483 30.6384 160.802 31.9137 160.802 33.3664C160.802 34.8014 160.492 36.077 159.872 37.193C159.252 38.2915 158.393 39.1595 157.295 39.7971C156.197 40.4174 154.93 40.7272 153.495 40.7272ZM153.495 38.3356C154.416 38.3356 155.231 38.1231 155.94 37.698C156.648 37.2728 157.198 36.6881 157.587 35.944C157.995 35.2001 158.198 34.3409 158.198 33.3664C158.198 32.3921 157.995 31.5329 157.587 30.7888C157.198 30.027 156.648 29.4335 155.94 29.0086C155.231 28.5834 154.416 28.3707 153.495 28.3707C152.574 28.3707 151.759 28.5834 151.051 29.0086C150.342 29.4335 149.784 30.027 149.377 30.7888C148.97 31.5329 148.766 32.3921 148.766 33.3664C148.766 34.3409 148.97 35.2001 149.377 35.944C149.784 36.6881 150.342 37.2728 151.051 37.698C151.759 38.1231 152.574 38.3356 153.495 38.3356Z" fill="white"/>
<path id="Vector_2" d="M81.1092 40.382L80.4938 41.1821C80.5163 41.1993 80.5395 41.2157 80.5634 41.2311L81.1092 40.382ZM80.6311 39.7443L79.6735 40.0635C79.6758 40.0704 79.6781 40.0769 79.6806 40.0837L80.6311 39.7443ZM76.6985 27.9457L75.7214 28.198C75.7272 28.2205 75.7337 28.243 75.741 28.2649L76.6985 27.9457ZM76.6985 26.6172L75.7781 26.2028C75.7748 26.2104 75.7716 26.218 75.7683 26.2253L76.6985 26.6172ZM78.5318 26.378L77.8498 27.1218C77.8713 27.1415 77.8935 27.1602 77.9164 27.1779L78.5318 26.378ZM82.4378 37.7779V38.7872C82.76 38.7872 83.0628 38.6333 83.2528 38.3729C83.4428 38.1127 83.4973 37.7774 83.3992 37.4703L82.4378 37.7779ZM81.5078 37.7779L80.54 37.4913C80.4496 37.7966 80.5087 38.1266 80.6992 38.3817C80.8897 38.6368 81.1894 38.7872 81.5078 38.7872V37.7779ZM84.6698 27.0953L85.6374 27.382L85.6379 27.3802L84.6698 27.0953ZM85.1214 26.378L85.7676 27.1534C85.7797 27.143 85.7916 27.1327 85.8034 27.1218L85.1214 26.378ZM86.8485 26.378L86.1665 27.1218C86.1879 27.1415 86.2101 27.1602 86.2331 27.1779L86.8485 26.378ZM87.3001 27.0953L86.3179 27.3265C86.3194 27.333 86.3209 27.3396 86.3227 27.3462L87.3001 27.0953ZM89.8775 37.14V38.1493C90.1896 38.1493 90.4838 38.0053 90.675 37.7587C90.8663 37.5124 90.9326 37.1912 90.8552 36.8892L89.8775 37.14ZM89.4791 37.14L88.5175 36.8334C88.4196 37.1403 88.4741 37.4756 88.6641 37.7355C88.8541 37.9957 89.1569 38.1493 89.4791 38.1493V37.14ZM92.6143 27.3081L93.5758 27.6146C93.5774 27.6104 93.5786 27.6061 93.5799 27.6018L92.6143 27.3081ZM95.0057 26.6172L94.1032 27.0683C94.1062 27.0747 94.1095 27.081 94.1127 27.0873L95.0057 26.6172ZM94.9792 27.9457L94.028 27.6081C94.026 27.6144 94.0237 27.6205 94.0217 27.6265L94.9792 27.9457ZM91.0467 39.7443L90.0892 39.4251C90.0846 39.439 90.0803 39.4529 90.0763 39.467L91.0467 39.7443ZM90.595 40.382L91.1696 41.2119C91.1834 41.2023 91.1971 41.1922 91.2104 41.1821L90.595 40.382ZM89.0007 40.382L88.4141 41.2033C88.4274 41.2129 88.4411 41.2223 88.4549 41.2311L89.0007 40.382ZM88.5226 39.7443L87.5481 40.0078C87.5494 40.0123 87.5507 40.0169 87.5522 40.0217L88.5226 39.7443ZM85.7858 29.62V28.6106C85.4716 28.6106 85.1752 28.7567 84.9844 29.0063C84.7934 29.2558 84.7293 29.5801 84.8113 29.8834L85.7858 29.62ZM86.0514 29.62L87.0223 29.8952C87.1086 29.5907 87.0473 29.2636 86.8566 29.0113C86.6658 28.7587 86.3676 28.6106 86.0514 28.6106V29.62ZM83.1817 39.7443L84.152 40.0217L84.1528 40.0196L83.1817 39.7443ZM82.7035 40.382L83.278 41.2119C83.2821 41.2091 83.2861 41.2064 83.2902 41.2033L82.7035 40.382ZM81.9062 39.6119C81.8245 39.6119 81.747 39.5922 81.6549 39.5331L80.5634 41.2311C80.9674 41.4907 81.4213 41.6305 81.9062 41.6305V39.6119ZM81.7246 39.5821C81.6315 39.5104 81.5982 39.4516 81.5815 39.4047L79.6806 40.0837C79.8408 40.5329 80.1264 40.8995 80.4938 41.1821L81.7246 39.5821ZM81.5883 39.4251L77.6558 27.6265L75.741 28.2649L79.6735 40.0635L81.5883 39.4251ZM77.6757 27.6936C77.5604 27.2473 77.6084 27.0565 77.6286 27.0088L75.7683 26.2253C75.5051 26.8508 75.5531 27.546 75.7214 28.198L77.6757 27.6936ZM77.6187 27.0313C77.6165 27.0366 77.6076 27.0535 77.589 27.0731C77.5703 27.0933 77.5519 27.1057 77.5405 27.1118C77.5307 27.1168 77.535 27.1125 77.562 27.107C77.5895 27.1011 77.6366 27.0948 77.708 27.0948V25.0762C76.9504 25.0762 76.1553 25.3648 75.7781 26.2028L77.6187 27.0313ZM77.708 27.0948C77.7789 27.0948 77.8155 27.1052 77.8289 27.11C77.84 27.1138 77.8445 27.117 77.8498 27.1218L79.2138 25.6338C78.7844 25.2402 78.2523 25.0762 77.708 25.0762V27.0948ZM77.9164 27.1779C77.9101 27.1731 77.9354 27.1905 77.9785 27.2626C78.0222 27.3351 78.0752 27.4484 78.1286 27.6157L80.051 27.0005C79.8812 26.4698 79.6112 25.9349 79.1472 25.5778L77.9164 27.1779ZM78.1286 27.6157L81.4765 38.0852L83.3992 37.4703L80.051 27.0005L78.1286 27.6157ZM82.4378 36.7686H81.5078V38.7872H82.4378V36.7686ZM82.4754 38.0643L85.6374 27.382L83.7019 26.8089L80.54 37.4913L82.4754 38.0643ZM85.6379 27.3802C85.678 27.2442 85.7285 27.1857 85.7676 27.1534L84.4753 25.6025C84.0892 25.9243 83.8387 26.3441 83.7014 26.8107L85.6379 27.3802ZM85.8034 27.1218C85.7981 27.1269 85.7984 27.1231 85.8193 27.1163C85.8435 27.108 85.899 27.0948 85.9982 27.0948V25.0762C85.4492 25.0762 84.8873 25.2233 84.4394 25.6338L85.8034 27.1218ZM85.9982 27.0948C86.0835 27.0948 86.1297 27.1067 86.1483 27.1133C86.1642 27.1186 86.1665 27.1218 86.1665 27.1218L87.5305 25.6338C87.0915 25.2314 86.5444 25.0762 85.9982 25.0762V27.0948ZM86.2331 27.1779C86.2669 27.2039 86.2964 27.2359 86.3179 27.3265L88.2826 26.8642C88.1623 26.3527 87.8908 25.9063 87.4639 25.5778L86.2331 27.1779ZM86.3227 27.3462L88.9 37.3911L90.8552 36.8892L88.2778 26.8445L86.3227 27.3462ZM89.8775 36.1307H89.4791V38.1493H89.8775V36.1307ZM90.4406 37.4468L93.5758 27.6146L91.6527 27.0012L88.5175 36.8334L90.4406 37.4468ZM93.5799 27.6018C93.6697 27.3071 93.7678 27.1885 93.8145 27.1471C93.8423 27.1226 93.8806 27.0948 93.9959 27.0948V25.0762C93.4383 25.0762 92.91 25.2523 92.477 25.6353C92.0632 26.0015 91.8071 26.494 91.6489 27.0141L93.5799 27.6018ZM93.9959 27.0948C94.1284 27.0948 94.1645 27.1191 94.1503 27.1118C94.1425 27.1075 94.1299 27.0989 94.1173 27.086C94.1052 27.0734 94.1014 27.0653 94.1032 27.0683L95.9084 26.1657C95.5143 25.3772 94.7589 25.0762 93.9959 25.0762V27.0948ZM94.1127 27.0873C94.1127 27.0873 94.113 27.088 94.1138 27.0901C94.1145 27.0921 94.1158 27.0959 94.1173 27.1024C94.1201 27.1153 94.1238 27.1405 94.1228 27.1814C94.1213 27.2667 94.0999 27.4055 94.028 27.6081L95.9304 28.2833C96.1696 27.6089 96.2632 26.8395 95.8988 26.1471L94.1127 27.0873ZM94.0217 27.6265L90.0892 39.4251L92.0042 40.0635L95.9367 28.2649L94.0217 27.6265ZM90.0763 39.467C90.0723 39.4814 90.0614 39.5193 89.9797 39.5821L91.2104 41.1821C91.5891 40.8907 91.8795 40.5034 92.0171 40.0217L90.0763 39.467ZM90.0205 39.5521C89.9718 39.5859 89.91 39.6119 89.7977 39.6119V41.6305C90.288 41.6305 90.7575 41.4971 91.1696 41.2119L90.0205 39.5521ZM89.7977 39.6119C89.716 39.6119 89.6385 39.5922 89.5464 39.5331L88.4549 41.2311C88.8589 41.4907 89.3128 41.6305 89.7977 41.6305V39.6119ZM89.5873 39.5606C89.5353 39.5235 89.5119 39.4965 89.5025 39.4842C89.4945 39.4733 89.4935 39.469 89.4929 39.467L87.5522 40.0217C87.6965 40.5273 88.0154 40.9187 88.4141 41.2033L89.5873 39.5606ZM89.4967 39.4809L86.7599 29.3565L84.8113 29.8834L87.5481 40.0078L89.4967 39.4809ZM85.7858 30.6293H86.0514V28.6106H85.7858V30.6293ZM85.0803 29.3447L82.2108 39.469L84.1528 40.0196L87.0223 29.8952L85.0803 29.3447ZM82.2113 39.467C82.2108 39.469 82.2098 39.4733 82.2017 39.4842C82.1924 39.4965 82.1689 39.5235 82.1169 39.5606L83.2902 41.2033C83.6888 40.9187 84.0077 40.5273 84.152 40.0217L82.2113 39.467ZM82.129 39.5521C82.0803 39.5859 82.0185 39.6119 81.9062 39.6119V41.6305C82.3965 41.6305 82.866 41.4971 83.278 41.2119L82.129 39.5521ZM100.267 39.7973L99.7721 40.6772C99.7776 40.6802 99.7829 40.6833 99.7885 40.686L100.267 39.7973ZM97.5833 37.1932L96.707 37.6941C96.7103 37.6994 96.7133 37.705 96.7166 37.7105L97.5833 37.1932ZM97.5303 29.5402L96.648 29.0499C96.6469 29.0517 96.6452 29.0547 96.6452 29.0547L97.5303 29.5402ZM100.081 26.9359L100.583 27.8115C100.587 27.8094 100.59 27.8072 100.594 27.8052L100.081 26.9359ZM107.361 26.9094L106.826 27.7653C106.83 27.7676 106.834 27.7698 106.838 27.7721L107.361 26.9094ZM109.62 29.4337L108.708 29.8672C108.711 29.8733 108.714 29.8793 108.717 29.8852L109.62 29.4337ZM110.072 33.978L110.756 34.7196C110.766 34.7105 110.776 34.7012 110.785 34.6916L110.072 33.978ZM98.4868 34.2967H97.4776C97.4776 34.8541 97.9294 35.306 98.4868 35.306V34.2967ZM98.4868 32.1708V31.1615C97.9294 31.1615 97.4776 31.6134 97.4776 32.1708H98.4868ZM109.115 32.1708L109.684 33.0045C110.05 32.7547 110.21 32.2959 110.079 31.873C109.949 31.4501 109.558 31.1615 109.115 31.1615V32.1708ZM108.026 32.9149L107.017 32.9351C107.024 33.3058 107.234 33.6424 107.563 33.8122C107.893 33.982 108.289 33.9576 108.595 33.7484L108.026 32.9149ZM107.494 30.5501L106.583 30.9831C106.584 30.9861 106.585 30.9891 106.587 30.9919L107.494 30.5501ZM101.197 28.9291L100.672 28.0671C100.668 28.0691 100.665 28.0711 100.662 28.0731L101.197 28.9291ZM99.576 30.7625L100.483 31.2054C100.484 31.2028 100.486 31.2001 100.487 31.1973L99.576 30.7625ZM105.873 38.1498L106.201 39.1044C106.207 39.1024 106.213 39.1004 106.218 39.0984L105.873 38.1498ZM107.282 37.4325L106.685 36.6184C106.682 36.6207 106.679 36.6227 106.676 36.625L107.282 37.4325ZM108.132 37.14V38.1493C108.151 38.1493 108.169 38.1488 108.188 38.1478L108.132 37.14ZM108.956 37.4057L109.623 36.649C109.618 36.6444 109.613 36.6399 109.608 36.6353L108.956 37.4057ZM109.009 39.1064L108.396 38.3048C108.391 38.3086 108.386 38.3123 108.381 38.3161L109.009 39.1064ZM106.75 40.2758L106.431 39.3181C106.431 39.3181 106.427 39.3194 106.425 39.3202L106.75 40.2758ZM104.199 39.7181C102.875 39.7181 101.732 39.4403 100.745 38.9089L99.7885 40.686C101.105 41.3949 102.583 41.7368 104.199 41.7368V39.7181ZM100.762 38.9177C99.7789 38.3648 99.0136 37.6204 98.45 36.676L96.7166 37.7105C97.4639 38.9626 98.4878 39.9545 99.7721 40.6772L100.762 38.9177ZM98.4596 36.6924C97.9189 35.7461 97.636 34.6469 97.636 33.3666H95.6175C95.6175 34.9563 95.9725 36.4082 96.707 37.6941L98.4596 36.6924ZM97.636 33.3666C97.636 32.0565 97.9065 30.9528 98.4151 30.0254L96.6452 29.0547C95.9493 30.3242 95.6175 31.7716 95.6175 33.3666H97.636ZM98.4124 30.0302C98.9455 29.0706 99.6661 28.3376 100.583 27.8115L99.5788 26.0605C98.3347 26.7744 97.3549 27.7774 96.648 29.0499L98.4124 30.0302ZM100.594 27.8052C101.502 27.2695 102.561 26.9886 103.801 26.9886V24.9699C102.242 24.9699 100.821 25.327 99.5679 26.0668L100.594 27.8052ZM103.801 26.9886C105.028 26.9886 106.022 27.2624 106.826 27.7653L107.896 26.0535C106.717 25.3161 105.337 24.9699 103.801 24.9699V26.9886ZM106.838 27.7721C107.656 28.269 108.276 28.9586 108.708 29.8672L110.531 29.0005C109.936 27.7479 109.051 26.7544 107.885 26.0466L106.838 27.7721ZM108.717 29.8852C109.167 30.7852 109.408 31.8569 109.408 33.1276H111.426C111.426 31.599 111.135 30.2084 110.523 28.9826L108.717 29.8852ZM109.408 33.1276C109.408 33.2064 109.392 33.2301 109.358 33.2642L110.785 34.6916C111.212 34.2652 111.426 33.7219 111.426 33.1276H109.408ZM109.387 33.2361C109.368 33.2541 109.331 33.2874 109.195 33.2874V35.306C109.767 35.306 110.315 35.1269 110.756 34.7196L109.387 33.2361ZM109.195 33.2874H98.4868V35.306H109.195V33.2874ZM99.496 34.2967V32.1708H97.4776V34.2967H99.496ZM98.4868 33.1801H109.115V31.1615H98.4868V33.1801ZM108.546 31.3373L107.456 32.0815L108.595 33.7484L109.684 33.0045L108.546 31.3373ZM109.035 32.8947C109.014 31.8849 108.811 30.949 108.402 30.108L106.587 30.9919C106.85 31.5326 107.001 32.1733 107.017 32.9351L109.035 32.8947ZM108.406 30.1168C107.995 29.2513 107.397 28.5473 106.614 28.0323L105.505 29.7194C105.962 30.0194 106.321 30.4314 106.583 30.9831L108.406 30.1168ZM106.614 28.0323C105.8 27.4971 104.845 27.2553 103.801 27.2553V29.274C104.528 29.274 105.079 29.4395 105.505 29.7194L106.614 28.0323ZM103.801 27.2553C102.641 27.2553 101.583 27.5109 100.672 28.0671L101.722 29.7908C102.263 29.461 102.942 29.274 103.801 29.274V27.2553ZM100.662 28.0731C99.7849 28.6212 99.1171 29.3812 98.6652 30.3277L100.487 31.1973C100.779 30.5849 101.192 30.1223 101.732 29.785L100.662 28.0731ZM98.6692 30.3197C98.2206 31.2384 98.0089 32.2619 98.0089 33.3666H100.027C100.027 32.5228 100.188 31.81 100.483 31.2054L98.6692 30.3197ZM98.0089 33.3666C98.0089 34.4998 98.2683 35.5465 98.81 36.4781L100.555 35.4635C100.211 34.8718 100.027 34.1821 100.027 33.3666H98.0089ZM98.81 36.4781C99.3442 37.3971 100.085 38.1259 101.017 38.6555L102.014 36.9003C101.387 36.544 100.906 36.0683 100.555 35.4635L98.81 36.4781ZM101.017 38.6555C101.967 39.1953 103.037 39.4516 104.199 39.4516V37.433C103.342 37.433 102.623 37.2462 102.014 36.9003L101.017 38.6555ZM104.199 39.4516C104.87 39.4516 105.539 39.3323 106.201 39.1044L105.545 37.1953C105.074 37.3573 104.627 37.433 104.199 37.433V39.4516ZM106.218 39.0984C106.861 38.8645 107.429 38.5839 107.887 38.2399L106.676 36.625C106.426 36.8125 106.054 37.01 105.529 37.2013L106.218 39.0984ZM107.879 38.2462C107.988 38.1657 108.066 38.1493 108.132 38.1493V36.1307C107.596 36.1307 107.106 36.3093 106.685 36.6184L107.879 38.2462ZM108.188 38.1478C108.237 38.145 108.26 38.1516 108.267 38.1539C108.273 38.1559 108.285 38.1599 108.304 38.1763L109.608 36.6353C109.168 36.2634 108.636 36.1011 108.076 36.1324L108.188 38.1478ZM108.288 38.1627C108.368 38.2334 108.402 38.2836 108.415 38.3078C108.426 38.328 108.426 38.3353 108.426 38.3388L110.442 38.2268C110.405 37.5728 110.072 37.0449 109.623 36.649L108.288 38.1627ZM108.426 38.3388C108.426 38.3353 108.426 38.3237 108.429 38.307C108.433 38.2904 108.438 38.2758 108.444 38.2649C108.455 38.2432 108.454 38.2601 108.396 38.3048L109.622 39.9084C110.131 39.5188 110.481 38.9452 110.442 38.2268L108.426 38.3388ZM108.381 38.3161C107.89 38.706 107.248 39.0459 106.431 39.3181L107.069 41.2334C108.059 40.9033 108.923 40.4637 109.636 39.897L108.381 38.3161ZM106.425 39.3202C105.629 39.5909 104.889 39.7181 104.199 39.7181V41.7368C105.14 41.7368 106.1 41.5629 107.075 41.2313L106.425 39.3202ZM115.255 40.1163L114.588 40.873C114.798 41.059 115.077 41.1488 115.357 41.1206C115.636 41.0923 115.891 40.9487 116.061 40.7244L115.255 40.1163ZM113.449 38.522L112.644 37.9126C112.325 38.3335 112.385 38.9293 112.781 39.2788L113.449 38.522ZM122.483 26.5904L123.156 25.8387C122.946 25.6505 122.666 25.5586 122.386 25.5859C122.105 25.6129 121.848 25.7562 121.678 25.9813L122.483 26.5904ZM124.263 28.1849L125.068 28.793C125.385 28.3742 125.327 27.783 124.936 27.433L124.263 28.1849ZM115.923 39.3595L114.116 37.765L112.781 39.2788L114.588 40.873L115.923 39.3595ZM114.253 39.1312L123.287 27.1998L121.678 25.9813L112.644 37.9126L114.253 39.1312ZM121.809 27.3424L123.59 28.9369L124.936 27.433L123.156 25.8387L121.809 27.3424ZM123.457 27.5768L114.45 39.5082L116.061 40.7244L125.068 28.793L123.457 27.5768ZM114.458 39.6119C114.198 39.6119 114.187 39.5473 114.235 39.5952C114.283 39.6432 114.219 39.6331 114.219 39.3721H112.2C112.2 39.9442 112.344 40.5584 112.808 41.0227C113.272 41.487 113.886 41.6305 114.458 41.6305V39.6119ZM114.219 39.3721C114.219 39.1115 114.283 39.1014 114.235 39.1493C114.187 39.197 114.198 39.1327 114.458 39.1327V37.114C113.886 37.114 113.272 37.2576 112.808 37.7219C112.344 38.1859 112.2 38.8004 112.2 39.3721H114.219ZM114.458 39.1327H123.519V37.114H114.458V39.1327ZM123.519 39.1327C123.78 39.1327 123.79 39.197 123.742 39.1493C123.694 39.1014 123.758 39.1115 123.758 39.3721H125.777C125.777 38.8004 125.633 38.1859 125.169 37.7219C124.705 37.2576 124.091 37.114 123.519 37.114V39.1327ZM123.758 39.3721C123.758 39.6331 123.694 39.6432 123.742 39.5952C123.79 39.5473 123.78 39.6119 123.519 39.6119V41.6305C124.091 41.6305 124.705 41.487 125.169 41.0227C125.633 40.5584 125.777 39.9442 125.777 39.3721H123.758ZM123.519 39.6119H114.458V41.6305H123.519V39.6119ZM114.193 27.5743C113.932 27.5743 113.922 27.5097 113.97 27.5576C114.018 27.6056 113.953 27.5952 113.953 27.3346H111.934C111.934 27.9063 112.078 28.5208 112.542 28.9851C113.006 29.4491 113.621 29.593 114.193 29.593V27.5743ZM113.953 27.3346C113.953 27.0739 114.018 27.0636 113.97 27.1115C113.922 27.1594 113.932 27.0948 114.193 27.0948V25.0762C113.621 25.0762 113.006 25.22 112.542 25.684C112.078 26.1483 111.934 26.7628 111.934 27.3346H113.953ZM114.193 27.0948H123.253V25.0762H114.193V27.0948ZM123.253 27.0948C123.514 27.0948 123.524 27.1594 123.476 27.1115C123.428 27.0636 123.493 27.0739 123.493 27.3346H125.511C125.511 26.7628 125.368 26.1483 124.903 25.684C124.439 25.22 123.825 25.0762 123.253 25.0762V27.0948ZM123.493 27.3346C123.493 27.5952 123.428 27.6056 123.476 27.5576C123.524 27.5097 123.514 27.5743 123.253 27.5743V29.593C123.825 29.593 124.439 29.4491 124.903 28.9851C125.368 28.5208 125.511 27.9063 125.511 27.3346H123.493ZM123.253 27.5743H114.193V29.593H123.253V27.5743ZM131.81 39.7708L131.293 40.6376C131.296 40.6396 131.3 40.6416 131.303 40.6437L131.81 39.7708ZM128.223 33.3401H127.214C127.214 33.3444 127.214 33.3487 127.214 33.353L128.223 33.3401ZM128.595 20.2394L127.906 19.5016C127.898 19.5094 127.89 19.5175 127.881 19.5258L128.595 20.2394ZM130.933 28.3974H129.924C129.924 28.8223 130.19 29.2018 130.589 29.3464C130.989 29.4913 131.436 29.3701 131.708 29.0436L130.933 28.3974ZM133.165 26.6437L133.609 27.5501C133.611 27.5488 133.614 27.5478 133.616 27.5465L133.165 26.6437ZM139.542 26.9626L138.999 27.8135C139.003 27.8158 139.006 27.818 139.01 27.8201L139.542 26.9626ZM141.96 29.5932L141.066 30.0615C141.069 30.0673 141.072 30.0729 141.075 30.0787L141.96 29.5932ZM141.88 37.1135L141.01 36.6023C141.008 36.6058 141.006 36.6093 141.004 36.6129L141.88 37.1135ZM139.277 39.7708L139.783 40.6437C139.787 40.6416 139.79 40.6396 139.794 40.6376L139.277 39.7708ZM137.948 37.6982L138.467 38.5637C138.472 38.5604 138.477 38.5574 138.483 38.5541L137.948 37.6982ZM139.622 35.8912L138.741 35.3991C138.738 35.4044 138.735 35.4098 138.732 35.4151L139.622 35.8912ZM139.622 30.789L138.737 31.274C138.74 31.2793 138.743 31.2846 138.746 31.2899L139.622 30.789ZM137.948 29.0353L137.413 29.8912C137.418 29.8945 137.423 29.8975 137.429 29.9008L137.948 29.0353ZM133.112 29.0353L133.631 29.9008C133.633 29.8995 133.635 29.8983 133.637 29.897L133.112 29.0353ZM133.112 37.6982L132.577 38.5541C132.585 38.5591 132.594 38.5642 132.602 38.5692L133.112 37.6982ZM135.53 39.7181C134.31 39.7181 133.248 39.4385 132.317 38.898L131.303 40.6437C132.569 41.3787 133.986 41.7368 135.53 41.7368V39.7181ZM132.327 38.9041C131.379 38.3381 130.634 37.5788 130.082 36.6129L128.33 37.6144C129.053 38.8804 130.045 39.8927 131.293 40.6376L132.327 38.9041ZM130.082 36.6129C129.537 35.6585 129.248 34.5712 129.232 33.3272L127.214 33.353C127.234 34.9081 127.6 36.3366 128.33 37.6144L130.082 36.6129ZM129.232 33.3401V21.2228H127.214V33.3401H129.232ZM129.232 21.2228C129.232 21.0361 129.281 20.9813 129.309 20.9533L127.881 19.5258C127.413 19.9939 127.214 20.5945 127.214 21.2228H129.232ZM129.284 20.9773C129.348 20.9172 129.424 20.8768 129.578 20.8768V18.8582C128.953 18.8582 128.373 19.0658 127.906 19.5016L129.284 20.9773ZM129.578 20.8768C129.765 20.8768 129.819 20.9253 129.847 20.9533L131.275 19.5258C130.807 19.0578 130.206 18.8582 129.578 18.8582V20.8768ZM129.847 20.9533C129.875 20.9813 129.924 21.0361 129.924 21.2228H131.942C131.942 20.5945 131.743 19.9939 131.275 19.5258L129.847 20.9533ZM129.924 21.2228V28.3974H131.942V21.2228H129.924ZM131.708 29.0436C132.238 28.4085 132.869 27.9127 133.609 27.5501L132.721 25.7373C131.725 26.225 130.869 26.8983 130.158 27.7514L131.708 29.0436ZM133.616 27.5465C134.354 27.1776 135.164 26.9886 136.061 26.9886V24.9699C134.868 24.9699 133.747 25.224 132.714 25.7408L133.616 27.5465ZM136.061 26.9886C137.175 26.9886 138.144 27.2679 138.999 27.8135L140.085 26.1115C138.885 25.3462 137.535 24.9699 136.061 24.9699V26.9886ZM139.01 27.8201C139.878 28.3588 140.562 29.0984 141.066 30.0615L142.854 29.1249C142.189 27.8561 141.261 26.842 140.074 26.1049L139.01 27.8201ZM141.075 30.0787C141.587 31.0113 141.854 32.09 141.854 33.3401H143.873C143.873 31.7913 143.538 30.3719 142.845 29.108L141.075 30.0787ZM141.854 33.3401C141.854 34.575 141.567 35.6538 141.01 36.6023L142.751 37.6247C143.505 36.3411 143.873 34.9043 143.873 33.3401H141.854ZM141.004 36.6129C140.452 37.5788 139.707 38.3381 138.759 38.9041L139.794 40.6376C141.042 39.8927 142.033 38.8804 142.757 37.6144L141.004 36.6129ZM138.77 38.898C137.841 39.4375 136.77 39.7181 135.53 39.7181V41.7368C137.089 41.7368 138.516 41.3797 139.783 40.6437L138.77 38.898ZM135.53 39.3451C136.599 39.3451 137.587 39.0916 138.467 38.5637L137.429 36.8327C136.891 37.1551 136.268 37.3265 135.53 37.3265V39.3451ZM138.483 38.5541C139.346 38.0146 140.024 37.279 140.512 36.3671L138.732 35.4151C138.405 36.027 137.967 36.496 137.413 36.8422L138.483 38.5541ZM140.503 36.383C141.018 35.4595 141.269 34.4378 141.269 33.3401H139.25C139.25 34.1203 139.075 34.7994 138.741 35.3991L140.503 36.383ZM141.269 33.3401C141.269 32.2288 141.02 31.2021 140.498 30.2884L138.746 31.2899C139.074 31.8642 139.25 32.5382 139.25 33.3401H141.269ZM140.507 30.3043C140.016 29.4075 139.334 28.6896 138.467 28.1698L137.429 29.9008C137.979 30.2311 138.413 30.6825 138.737 31.274L140.507 30.3043ZM138.483 28.1794C137.601 27.628 136.607 27.3616 135.53 27.3616V29.3802C136.26 29.3802 136.878 29.5566 137.413 29.8912L138.483 28.1794ZM135.53 27.3616C134.467 27.3616 133.478 27.63 132.587 28.1736L133.637 29.897C134.199 29.5548 134.821 29.3802 135.53 29.3802V27.3616ZM132.593 28.1698C131.726 28.6896 131.044 29.4075 130.553 30.3043L132.323 31.274C132.647 30.6825 133.081 30.2311 133.631 29.9008L132.593 28.1698ZM130.553 30.3043C130.054 31.2152 129.818 32.2359 129.818 33.3401H131.836C131.836 32.5309 132.007 31.8511 132.323 31.274L130.553 30.3043ZM129.818 33.3401C129.818 34.4304 130.056 35.4466 130.548 36.3671L132.328 35.4151C132.005 34.8122 131.836 34.1276 131.836 33.3401H129.818ZM130.548 36.3671C131.036 37.279 131.714 38.0146 132.577 38.5541L133.647 36.8422C133.093 36.496 132.655 36.027 132.328 35.4151L130.548 36.3671ZM132.602 38.5692C133.491 39.0898 134.475 39.3451 135.53 39.3451V37.3265C134.814 37.3265 134.185 37.1569 133.622 36.8271L132.602 38.5692ZM149.695 39.7973L149.189 40.6704C149.192 40.6724 149.196 40.6744 149.199 40.6765L149.695 39.7973ZM147.092 37.1932L146.209 37.6835C146.212 37.6891 146.216 37.6946 146.219 37.7002L147.092 37.1932ZM147.092 29.5402L146.215 29.0393L146.213 29.0439L147.092 29.5402ZM149.695 26.9359L150.192 27.815C150.195 27.813 150.199 27.811 150.202 27.8089L149.695 26.9359ZM157.268 26.9359L156.761 27.8089C156.765 27.811 156.768 27.813 156.772 27.815L157.268 26.9359ZM159.846 29.5402L158.963 30.0302C158.966 30.0358 158.97 30.0413 158.973 30.0469L159.846 29.5402ZM159.872 37.1932L160.751 37.6893C160.752 37.6873 160.753 37.6855 160.754 37.6835L159.872 37.1932ZM157.295 39.7973L157.791 40.6765C157.794 40.6744 157.798 40.6724 157.801 40.6704L157.295 39.7973ZM157.587 35.9442L156.702 35.4595C156.699 35.465 156.696 35.4706 156.693 35.4759L157.587 35.9442ZM157.587 30.789L156.688 31.2488C156.693 31.2573 156.697 31.2657 156.702 31.274L157.587 30.789ZM149.377 30.789L150.262 31.274C150.263 31.271 150.265 31.2679 150.267 31.2652L149.377 30.789ZM153.495 39.7181C152.21 39.7181 151.119 39.4418 150.192 38.9185L149.199 40.6765C150.469 41.3931 151.911 41.7368 153.495 41.7368V39.7181ZM150.202 38.9245C149.256 38.3749 148.514 37.6331 147.964 36.6863L146.219 37.7002C146.944 38.9502 147.939 39.9444 149.189 40.6704L150.202 38.9245ZM147.974 36.703C147.447 35.7547 147.171 34.6517 147.171 33.3666H145.152C145.152 34.9515 145.496 36.3997 146.209 37.6835L147.974 36.703ZM147.171 33.3666C147.171 32.0613 147.448 30.9616 147.97 30.0363L146.213 29.0439C145.495 30.3154 145.152 31.7668 145.152 33.3666H147.171ZM147.968 30.0408C148.517 29.0797 149.255 28.3436 150.192 27.815L149.199 26.057C147.939 26.7683 146.941 27.7683 146.215 29.0393L147.968 30.0408ZM150.202 27.8089C151.127 27.2715 152.215 26.9886 153.495 26.9886V24.9699C151.906 24.9699 150.46 25.3247 149.189 26.063L150.202 27.8089ZM153.495 26.9886C154.755 26.9886 155.834 27.2705 156.761 27.8089L157.775 26.063C156.506 25.326 155.069 24.9699 153.495 24.9699V26.9886ZM156.772 27.815C157.706 28.3424 158.432 29.0749 158.963 30.0302L160.728 29.0499C160.018 27.7734 159.027 26.7698 157.764 26.057L156.772 27.815ZM158.973 30.0469C159.509 30.9704 159.793 32.0661 159.793 33.3666H161.811C161.811 31.762 161.458 30.3065 160.718 29.0333L158.973 30.0469ZM159.793 33.3666C159.793 34.6517 159.517 35.7547 158.99 36.703L160.754 37.6835C161.467 36.3997 161.811 34.9515 161.811 33.3666H159.793ZM158.993 36.6972C158.462 37.6379 157.732 38.3764 156.788 38.9245L157.801 40.6704C159.054 39.9429 160.042 38.9455 160.751 37.6893L158.993 36.6972ZM156.798 38.9185C155.871 39.4418 154.78 39.7181 153.495 39.7181V41.7368C155.079 41.7368 156.521 41.3931 157.791 40.6765L156.798 38.9185ZM153.495 39.3451C154.578 39.3451 155.576 39.0933 156.459 38.5637L155.42 36.8327C154.886 37.1531 154.255 37.3265 153.495 37.3265V39.3451ZM156.459 38.5637C157.329 38.0413 158.007 37.3182 158.481 36.4125L156.693 35.4759C156.388 36.0585 155.967 36.5046 155.42 36.8327L156.459 38.5637ZM158.472 36.4292C158.972 35.5157 159.207 34.4852 159.207 33.3666H157.189C157.189 34.197 157.016 34.8849 156.702 35.4595L158.472 36.4292ZM159.207 33.3666C159.207 32.2483 158.972 31.2177 158.472 30.3043L156.702 31.274C157.016 31.8486 157.189 32.5364 157.189 33.3666H159.207ZM158.485 30.3293C158.013 29.4057 157.335 28.6692 156.459 28.1433L155.42 29.8743C155.961 30.1986 156.382 30.649 156.688 31.2488L158.485 30.3293ZM156.459 28.1433C155.576 27.6134 154.578 27.3616 153.495 27.3616V29.3802C154.255 29.3802 154.886 29.5536 155.42 29.8743L156.459 28.1433ZM153.495 27.3616C152.413 27.3616 151.414 27.6134 150.531 28.1433L151.57 29.8743C152.104 29.5536 152.735 29.3802 153.495 29.3802V27.3616ZM150.531 28.1433C149.659 28.6666 148.976 29.3979 148.487 30.3131L150.267 31.2652C150.592 30.6568 151.025 30.2011 151.57 29.8743L150.531 28.1433ZM148.491 30.3043C147.991 31.2177 147.756 32.2483 147.756 33.3666H149.775C149.775 32.5364 149.947 31.8486 150.262 31.274L148.491 30.3043ZM147.756 33.3666C147.756 34.4852 147.991 35.5157 148.491 36.4292L150.262 35.4595C149.947 34.8849 149.775 34.197 149.775 33.3666H147.756ZM148.491 36.4292C148.982 37.326 149.665 38.0439 150.531 38.5637L151.57 36.8327C151.019 36.5021 150.586 36.0507 150.262 35.4595L148.491 36.4292ZM150.531 38.5637C151.414 39.0933 152.413 39.3451 153.495 39.3451V37.3265C152.735 37.3265 152.104 37.1531 151.57 36.8327L150.531 38.5637Z" fill="white"/>
<path id="Vector_3" d="M45.6604 11.4636C43.2193 13.5454 44.6025 3.85023 55.8139 3.63726C67.0253 3.42429 68.8982 16.8944 68.9318 22.6764C68.9767 32.151 66.6178 54.5502 47.5634 53.9819C42.4828 53.8287 36.2286 51.5002 35.0846 37.9441C35.0846 37.9163 35.0846 37.9153 35.0846 37.8656C35.0846 37.1182 35.1593 24.96 32.6508 26.9595C30.0566 29.0225 28.4191 41.3079 27.2526 46.1479C26.3032 50.0725 22.0677 62.2756 11.2264 48.2113C11.2264 48.2113 9.85055 47.3627 13.3423 52.1767C16.834 56.9907 28.6696 65.2582 42.9612 62.698C57.2531 60.1376 64.5428 49.3735 64.5428 49.3735C64.5428 49.3735 65.956 47.2769 67.429 44.5408C67.5224 44.3728 67.6748 44.2456 67.8567 44.1838C68.0388 44.122 68.2372 44.13 68.4135 44.2065C68.5899 44.2829 68.7314 44.4225 68.8107 44.5976C68.8899 44.7727 68.901 44.9711 68.8422 45.1537C68.8197 45.2161 68.7945 45.2827 68.7748 45.3556C65.7905 56.4523 53.4886 63.9688 53.4886 63.9688C53.4886 63.9688 37.6193 74.0152 20.3217 65.7142C3.0243 57.4131 0.646781 41.0165 0.646781 41.0165C0.646781 41.0165 -2.20937 26.4737 4.08224 16.4793C10.3741 6.4851 12.546 14.8984 12.8225 17.07C13.5068 22.6763 13.1404 37.0584 15.8394 39.4952C18.4152 41.8199 18.5797 37.477 18.5873 37.0919C18.5873 37.0695 18.5873 37.0546 18.5873 37.0321C18.6844 36.1053 21.1107 14.1172 32.4417 2.27289C34.1985 0.43413 36.9911 -1.83839 39.5444 9.5724C42.0978 20.9832 42.1165 25.3001 43.1409 30.5027C43.6493 33.0816 46.9502 43.827 52.7708 34.7336C56.8244 28.4008 56.726 22.9004 56.4868 20.3291C56.4797 20.2999 56.4709 20.2711 56.4606 20.2431C56.4606 19.1119 52.8679 5.31174 45.6604 11.4636Z" fill="url(#paint0_radial_1_152)"/>
</g>
<defs>
<radialGradient id="paint0_radial_1_152" cx="0" cy="0" r="1" gradientUnits="userSpaceOnUse" gradientTransform="translate(25.3633 7.72178) rotate(77.6203) scale(70.4596 60.3852)">
<stop stop-color="#FF3838"/>
<stop offset="0.479215" stop-color="#CA234B"/>
<stop offset="1" stop-color="#510D57"/>
</radialGradient>
</defs>
</svg>
