<svg xmlns="http://www.w3.org/2000/svg" width="33" height="33" viewBox="0 0 33 33" fill="black" stroke="black">
  <path d="M16.5 2.75C18.3057 2.75 20.0937 3.10565 21.7619 3.79666C23.4301 4.48766 24.9459 5.50048 26.2227 6.77728C27.4995 8.05409 28.5123 9.56988 29.2033 11.2381C29.8943 12.9063 30.25 14.6943 30.25 16.5C30.25 20.1467 28.8013 23.6441 26.2227 26.2227C23.6441 28.8013 20.1467 30.25 16.5 30.25C14.6943 30.25 12.9063 29.8943 11.2381 29.2033C9.56988 28.5123 8.05409 27.4995 6.77728 26.2227C4.19866 23.6441 2.75 20.1467 2.75 16.5C2.75 12.8533 4.19866 9.35591 6.77728 6.77728C9.35591 4.19866 12.8533 2.75 16.5 2.75ZM16.5 5.5C13.5826 5.5 10.7847 6.65893 8.72183 8.72183C6.65893 10.7847 5.5 13.5826 5.5 16.5C5.5 19.4174 6.65893 22.2153 8.72183 24.2782C10.7847 26.3411 13.5826 27.5 16.5 27.5C19.4174 27.5 22.2153 26.3411 24.2782 24.2782C26.3411 22.2153 27.5 19.4174 27.5 16.5C27.5 13.5826 26.3411 10.7847 24.2782 8.72183C22.2153 6.65893 19.4174 5.5 16.5 5.5ZM22 13.75V23.375C22 23.7397 21.8551 24.0894 21.5973 24.3473C21.3394 24.6051 20.9897 24.75 20.625 24.75H12.375C12.0103 24.75 11.6606 24.6051 11.4027 24.3473C11.1449 24.0894 11 23.7397 11 23.375V13.75H22ZM18.5625 8.25L19.9375 9.625H23.375V12.375H9.625V9.625H13.0625L14.4375 8.25H18.5625Z" fill="#FFFAFA"/>
</svg>