<svg xmlns="http://www.w3.org/2000/svg" width="31" height="31" viewBox="0 0 31 31" fill="#000000" >
  <path d="M25.1875 19.375H19.375V17.4375H25.1875V19.375ZM29.0625 27.125H23.25V25.1875H29.0625V27.125ZM27.125 23.25H21.3125V21.3125H27.125V23.25Z" fill="white"/>
  <path d="M16.4715 19.375C16.4647 18.5576 16.2467 17.7558 15.8386 17.0475C15.4306 16.3392 14.8464 15.7484 14.1427 15.3324L21.3124 2.90625L19.6364 1.9375L12.2962 14.6533C11.3954 14.4521 10.4585 14.4799 9.57116 14.7343C8.68385 14.9886 7.87448 15.4614 7.21707 16.1093C3.59007 19.6075 3.87101 27.7857 3.88457 28.1325C3.89459 28.3827 4.00105 28.6192 4.18166 28.7926C4.36226 28.966 4.60297 29.0627 4.85332 29.0625H19.3759C19.5792 29.0625 19.7773 28.9985 19.9423 28.8796C20.1072 28.7608 20.2306 28.593 20.2949 28.4001C20.3592 28.2072 20.3612 27.999 20.3005 27.8049C20.2399 27.6108 20.1198 27.4407 19.9571 27.3188C16.5277 24.7458 16.4715 19.4273 16.4715 19.375ZM11.5571 16.4658C12.3324 16.4744 13.0747 16.7815 13.6293 17.3234C14.184 17.8652 14.5084 18.6 14.535 19.375C14.535 19.4118 14.5369 19.5765 14.5515 19.8293L8.83585 17.2873C9.21235 16.9769 9.64681 16.7444 10.114 16.6033C10.5811 16.4623 11.0717 16.4156 11.5571 16.4658ZM14.9671 27.125C14.1927 26.3366 13.6992 25.3154 13.5624 24.2188H11.6249C11.6943 25.2498 12.0163 26.2479 12.5626 27.125H10.4091C10.0107 25.8678 9.76831 24.5664 9.68738 23.25H7.74988C7.81236 24.5624 8.02857 25.863 8.3941 27.125H5.81238C5.84241 25.3464 6.09332 21.4171 7.55904 18.8393L14.8566 22.0846C15.2073 23.9052 15.9548 25.6261 17.046 27.125H14.9671Z" fill="white"/>
</svg>