<svg width="101" height="78" viewBox="0 0 101 78" fill="none" xmlns="http://www.w3.org/2000/svg">
<path d="M4.36623 4.29969L4.36867 4.29731C5.94943 2.75345 7.8003 2 10.0312 2H39.2176L48.635 11.182L49.2176 11.75H50.0312H90.0312C92.2623 11.75 94.1155 12.5035 95.7001 14.0485C97.279 15.588 98.0312 17.3695 98.0312 19.5V68.25C98.0312 70.3801 97.2792 72.1635 95.7 73.7064C94.116 75.2477 92.2627 76 90.0312 76H10.0312C7.79923 76 5.94797 75.2474 4.36745 73.7064C2.78442 72.1629 2.03125 70.3795 2.03125 68.25V9.75C2.03125 7.62065 2.78429 5.83946 4.36623 4.29969Z" stroke="#FFFAFA" stroke-width="4"/>
</svg>
