<svg width="91" height="79" viewBox="0 0 91 79" fill="none" xmlns="http://www.w3.org/2000/svg">
<g id="Group 88">
<path id="Vector" d="M15.1667 0.0666656C12.7532 0.0666656 10.4386 1.02541 8.732 2.73199C7.02541 4.43858 6.06667 6.7532 6.06667 9.16667V57.7C6.06667 60.1135 7.02541 62.4281 8.732 64.1347C10.4386 65.8413 12.7532 66.8 15.1667 66.8H75.8333C78.2468 66.8 80.5614 65.8413 82.268 64.1347C83.9746 62.4281 84.9333 60.1135 84.9333 57.7V9.16667C84.9333 6.7532 83.9746 4.43858 82.268 2.73199C80.5614 1.02541 78.2468 0.0666656 75.8333 0.0666656H15.1667ZM0 78.9333H91V72.8667H0V78.9333Z" fill="white"/>
<path id="Vector_2" d="M73.625 14.875L36.125 52.375L18.9375 35.1875L23.3437 30.7813L36.125 43.5313L69.2188 10.4688L73.625 14.875Z" fill="white"/>
</g>
</svg>
