<svg xmlns="http://www.w3.org/2000/svg" width="31" height="38" viewBox="0 0 31 38" fill="grey" stroke="black">
  <path d="M22.3237 1.94116H10.5531C9.87079 1.94116 9.18844 2.28234 8.67667 2.7941C8.16491 3.30587 7.82373 3.98822 7.82373 4.67057V26.5059C7.82373 27.1882 8.16491 27.8706 8.67667 28.3823C9.18844 28.8941 9.87079 29.2353 10.5531 29.2353H27.2708C27.9531 29.2353 28.6355 28.8941 29.1473 28.3823C29.659 27.8706 30.0002 27.1882 30.0002 26.5059V9.61763L22.3237 1.94116Z" stroke="#FFFAFA" stroke-width="2" stroke-linecap="round" stroke-linejoin="round"/>
  <path d="M1 11.4941V33.3294C1 34.0117 1.34118 34.6941 1.85294 35.2059C2.36471 35.7176 3.04706 36.0588 3.72941 36.0588H20.4471M21.4706 1.94116V10.4706H30" stroke="#FFFAFA" stroke-width="2" stroke-linecap="round" stroke-linejoin="round"/>
</svg>