<svg width="95" height="94" viewBox="0 0 95 94" fill="none" xmlns="http://www.w3.org/2000/svg">
<path d="M92.4564 60.1894C89.6716 57.2225 83.9817 55.507 75.9182 55.507C71.603 55.507 66.6152 55.9359 61.1837 56.9464C57.8641 53.6724 54.8432 50.1088 52.1568 46.2979C50.077 43.4074 48.2558 40.3466 46.5873 37.3327C49.7686 27.3892 51.3137 19.2788 51.3137 13.4361C51.3137 6.88843 48.9432 0.064621 42.1487 0.064621C40.0514 0.064621 37.9716 1.33362 36.8554 3.20187C33.7945 8.70968 35.1722 20.7975 40.4509 32.7296C38.4375 38.8165 36.2174 44.833 33.7945 50.7688C31.5006 56.2142 28.984 61.563 26.251 66.8017C10.9672 73.0145 1.0678 80.2496 0.151295 85.9424C-0.262892 88.0839 0.442108 90.0432 1.94023 91.6177C2.46017 92.0466 4.41948 93.7444 7.73886 93.7444C17.882 93.7444 28.5628 76.9919 34.0089 66.8781C38.1714 65.471 42.3485 64.1844 46.508 62.9007C50.9035 61.687 55.3563 60.6909 59.8501 59.9162C70.5602 69.7245 79.9984 71.2696 84.7425 71.2696C90.5881 71.2696 92.6679 68.8521 93.3729 66.8781C94.4744 64.3224 93.649 61.5083 92.3947 60.0542L92.471 60.207L92.4564 60.1894ZM87.0396 64.3195C86.6254 66.4463 84.531 67.868 81.6082 67.868C80.7827 67.868 80.0777 67.7152 79.2376 67.5919C73.9119 66.3053 68.927 63.5998 63.9538 59.3287C67.8113 58.681 71.7159 58.3538 75.6274 58.3505C78.5179 58.3505 81.0295 58.4886 82.7097 58.9174C84.6367 59.3316 87.6976 60.63 87.0102 64.3342H87.0866L87.0396 64.3195ZM57.5735 57.6338C53.7028 58.4239 49.8559 59.327 46.038 60.3421C42.7169 61.2441 39.4262 62.2542 36.1709 63.3707C37.8611 60.0234 39.4375 56.6198 40.8974 53.1658C42.5805 49.1738 43.9582 45.0583 45.3506 41.2307C46.7136 43.6336 48.2411 46.0512 49.7715 48.2073C52.2802 51.6177 54.8975 54.8637 57.5295 57.6925V57.6161L57.5735 57.6338ZM39.3493 4.82043C39.5942 4.31918 39.9718 3.89457 40.4409 3.59267C40.9101 3.29077 41.453 3.12311 42.0107 3.10787C44.9335 3.10787 45.4828 6.50362 45.4828 9.22668C45.4828 13.8004 44.0904 20.7476 41.7199 28.6729C37.5574 17.6279 37.2842 8.38656 39.364 4.82043H39.3493ZM24.0655 71.0052C16.9832 82.9227 10.174 90.3134 5.99692 90.3134C5.18617 90.3134 4.48117 90.0226 3.93186 89.6084C3.09173 88.7507 2.67755 87.7578 2.95367 86.6239C3.7938 82.3558 11.7192 76.3897 24.0831 71.0023L24.0655 71.0052Z" fill="#FFFAFA"/>
</svg>
