<svg xmlns="http://www.w3.org/2000/svg" width="34" height="34" viewBox="0 0 34 34" fill="none" stroke="black">
  <path d="M25.5441 23.5407L31.6117 29.6069L29.6071 31.6115L23.5409 25.5439C21.2838 27.3533 18.4763 28.3374 15.5835 28.3333C8.5455 28.3333 2.8335 22.6213 2.8335 15.5833C2.8335 8.54531 8.5455 2.83331 15.5835 2.83331C22.6215 2.83331 28.3335 8.54531 28.3335 15.5833C28.3376 18.4761 27.3535 21.2836 25.5441 23.5407ZM22.7022 22.4896C24.5002 20.6406 25.5042 18.1623 25.5002 15.5833C25.5002 10.1036 21.0617 5.66665 15.5835 5.66665C10.1038 5.66665 5.66683 10.1036 5.66683 15.5833C5.66683 21.0616 10.1038 25.5 15.5835 25.5C18.1624 25.504 20.6408 24.5 22.4897 22.7021L22.7022 22.4896Z" fill="white"/>
</svg>