<svg width="24" height="31" viewBox="0 0 24 31" fill="none" xmlns="http://www.w3.org/2000/svg">
<path d="M12 24C11.45 24 10.9793 23.804 10.588 23.412C10.196 23.0207 10 22.55 10 22C10 21.45 10.196 20.979 10.588 20.587C10.9793 20.1957 11.45 20 12 20C12.55 20 13.021 20.1957 13.413 20.587C13.8043 20.979 14 21.45 14 22C14 22.55 13.8043 23.0207 13.413 23.412C13.021 23.804 12.55 24 12 24ZM12 31C9.68333 31 7.675 30.2373 5.975 28.712C4.275 27.1873 3.3 25.2833 3.05 23H5.1C5.33333 24.7333 6.104 26.1667 7.412 27.3C8.72067 28.4333 10.25 29 12 29C13.95 29 15.604 28.3207 16.962 26.962C18.3207 25.604 19 23.95 19 22C19 20.05 18.3207 18.3957 16.962 17.037C15.604 15.679 13.95 15 12 15C10.85 15 9.775 15.2667 8.775 15.8C7.775 16.3333 6.93333 17.0667 6.25 18H9V20H3V14H5V16.35C5.85 15.2833 6.88767 14.4583 8.113 13.875C9.33767 13.2917 10.6333 13 12 13C13.25 13 14.421 13.2373 15.513 13.712C16.6043 14.1873 17.5543 14.829 18.363 15.637C19.171 16.4457 19.8127 17.3957 20.288 18.487C20.7627 19.579 21 20.75 21 22C21 23.25 20.7627 24.4207 20.288 25.512C19.8127 26.604 19.171 27.554 18.363 28.362C17.5543 29.1707 16.6043 29.8127 15.513 30.288C14.421 30.7627 13.25 31 12 31Z" fill="#FFFAFA"/>
</svg>
