<svg xmlns="http://www.w3.org/2000/svg" width="33" height="33" viewBox="0 0 33 33" fill="none" stroke="black">
  <path d="M15.125 23.375H17.875L18.2875 21.3125C18.5625 21.1979 18.8205 21.0778 19.0616 20.9522C19.3018 20.8258 19.5479 20.6708 19.8 20.4875L21.7938 21.1063L23.1688 18.7687L21.5875 17.3937C21.6333 17.0729 21.6562 16.775 21.6562 16.5C21.6562 16.225 21.6333 15.9271 21.5875 15.6063L23.1688 14.2313L21.7938 11.8937L19.8 12.5125C19.5479 12.3292 19.3018 12.1742 19.0616 12.0477C18.8205 11.9222 18.5625 11.8021 18.2875 11.6875L17.875 9.625H15.125L14.7125 11.6875C14.4375 11.8021 14.1795 11.9222 13.9384 12.0477C13.6982 12.1742 13.4521 12.3292 13.2 12.5125L11.2062 11.8937L9.83125 14.2313L11.4125 15.6063C11.3667 15.9271 11.3438 16.225 11.3438 16.5C11.3438 16.775 11.3667 17.0729 11.4125 17.3937L9.83125 18.7687L11.2062 21.1063L13.2 20.4875C13.4521 20.6708 13.6982 20.8258 13.9384 20.9522C14.1795 21.0778 14.4375 21.1979 14.7125 21.3125L15.125 23.375ZM16.5 19.25C15.7437 19.25 15.0966 18.9805 14.5585 18.4415C14.0195 17.9034 13.75 17.2563 13.75 16.5C13.75 15.7437 14.0195 15.0961 14.5585 14.5571C15.0966 14.019 15.7437 13.75 16.5 13.75C17.2563 13.75 17.9039 14.019 18.4429 14.5571C18.981 15.0961 19.25 15.7437 19.25 16.5C19.25 17.2563 18.981 17.9034 18.4429 18.4415C17.9039 18.9805 17.2563 19.25 16.5 19.25ZM6.875 28.875C6.11875 28.875 5.47112 28.606 4.93212 28.0679C4.39404 27.5289 4.125 26.8813 4.125 26.125V6.875C4.125 6.11875 4.39404 5.47112 4.93212 4.93212C5.47112 4.39404 6.11875 4.125 6.875 4.125H26.125C26.8813 4.125 27.5289 4.39404 28.0679 4.93212C28.606 5.47112 28.875 6.11875 28.875 6.875V26.125C28.875 26.8813 28.606 27.5289 28.0679 28.0679C27.5289 28.606 26.8813 28.875 26.125 28.875H6.875ZM6.875 26.125H26.125V6.875H6.875V26.125Z" fill="white"/>
</svg>