<svg width="19" height="19" viewBox="0 0 19 19" fill="none" xmlns="http://www.w3.org/2000/svg">
<path d="M18.9203 6.84441C18.8294 6.56257 18.6624 6.31137 18.4376 6.1186C18.2128 5.92584 17.9391 5.79903 17.6467 5.75222L13.0586 5.00659L10.9318 0.873541C10.7963 0.610424 10.5909 0.389709 10.3383 0.235615C10.0856 0.0815198 9.79538 0 9.49943 0C9.20348 0 8.91325 0.0815198 8.66059 0.235615C8.40792 0.389709 8.20259 0.610424 8.06711 0.873541L5.94022 5.00659L1.35223 5.75222C1.06013 5.79977 0.786775 5.92685 0.562149 6.11953C0.337522 6.3122 0.170309 6.56303 0.078855 6.84449C-0.0125988 7.12594 -0.0247589 7.42715 0.043709 7.71507C0.112177 8.00298 0.258627 8.26647 0.46699 8.47663L3.74053 11.7766L3.03199 16.3705C2.98652 16.663 3.02263 16.9625 3.13635 17.2359C3.25006 17.5093 3.43698 17.7461 3.67653 17.9201C3.91609 18.0942 4.199 18.1988 4.49416 18.2224C4.78932 18.2461 5.08529 18.1879 5.34951 18.0542L9.49943 15.9607L13.6495 18.0542C13.9137 18.1876 14.2096 18.2456 14.5046 18.2218C14.7997 18.198 15.0825 18.0934 15.3219 17.9194C15.5614 17.7454 15.7483 17.5088 15.8621 17.2356C15.9759 16.9623 16.0122 16.663 15.967 16.3705L15.2584 11.7766L18.532 8.47663C18.741 8.26688 18.8879 8.00338 18.9564 7.7153C19.025 7.42723 19.0124 7.12581 18.9203 6.84441ZM17.6326 7.58462L13.909 11.3383L14.7151 16.5637C14.7251 16.6262 14.7175 16.6904 14.6933 16.7489C14.6691 16.8075 14.6292 16.8582 14.5779 16.8955C14.5266 16.9327 14.466 16.955 14.4029 16.96C14.3397 16.9649 14.2764 16.9522 14.2199 16.9234L9.49943 14.542L4.77888 16.9235C4.72245 16.9523 4.65914 16.965 4.59596 16.96C4.53278 16.9551 4.4722 16.9328 4.42093 16.8955C4.36966 16.8583 4.3297 16.8076 4.30549 16.749C4.28127 16.6904 4.27374 16.6263 4.28373 16.5637L5.08985 11.3383L1.36628 7.58458C1.32182 7.53965 1.29057 7.48336 1.27597 7.42185C1.26137 7.36035 1.26398 7.29602 1.28352 7.2359C1.30305 7.17579 1.33875 7.12221 1.38671 7.08103C1.43467 7.03986 1.49303 7.01267 1.55541 7.00246L6.77412 6.15435L9.19341 1.45316C9.22234 1.39693 9.2662 1.34975 9.32019 1.31681C9.37417 1.28387 9.43619 1.26645 9.49943 1.26645C9.56267 1.26645 9.62469 1.28387 9.67867 1.31681C9.73265 1.34975 9.77652 1.39693 9.80545 1.45316L12.2247 6.15435L17.4434 7.00246C17.5058 7.01267 17.5642 7.03986 17.6122 7.08103C17.6601 7.12221 17.6958 7.17579 17.7153 7.2359C17.7349 7.29602 17.7375 7.36035 17.7229 7.42185C17.7083 7.48336 17.677 7.53965 17.6326 7.58458L17.6326 7.58462Z" fill="white"/>
</svg>
