<svg xmlns="http://www.w3.org/2000/svg" width="31" height="31" viewBox="0 0 31 31" fill="none" stroke="black">
  <path d="M15.5002 14.2083C17.213 14.2083 18.8557 14.8888 20.0669 16.0999C21.2781 17.3111 21.9585 18.9538 21.9585 20.6667V28.4167H19.3752V20.6667C19.3752 19.6783 18.9976 18.7272 18.3195 18.0081C17.6414 17.2889 16.7142 16.8561 15.7275 16.7981L15.5002 16.7917C14.5118 16.7916 13.5607 17.1692 12.8416 17.8473C12.1224 18.5254 11.6896 19.4526 11.6316 20.4393L11.6252 20.6667V28.4167H9.04183V20.6667C9.04183 18.9538 9.72226 17.3111 10.9334 16.0999C12.1446 14.8888 13.7873 14.2083 15.5002 14.2083ZM7.10433 18.0833C7.4647 18.0833 7.81475 18.126 8.15058 18.2047C7.92974 18.8622 7.79895 19.5466 7.76179 20.2391L7.75016 20.6667V20.7777C7.60169 20.7246 7.44726 20.6899 7.29033 20.6744L7.10433 20.6667C6.62269 20.6667 6.15832 20.8461 5.80179 21.1699C5.44525 21.4937 5.22211 21.9387 5.17587 22.4182L5.16683 22.6042V28.4167H2.5835V22.6042C2.5835 21.4052 3.0598 20.2553 3.90762 19.4075C4.75544 18.5596 5.90533 18.0833 7.10433 18.0833ZM23.896 18.0833C25.095 18.0833 26.2449 18.5596 27.0927 19.4075C27.9405 20.2553 28.4168 21.4052 28.4168 22.6042V28.4167H25.8335V22.6042C25.8335 22.1225 25.6541 21.6582 25.3302 21.3016C25.0064 20.9451 24.5614 20.7219 24.082 20.6757L23.896 20.6667C23.67 20.6667 23.453 20.7054 23.2502 20.7765V20.6667C23.2502 19.8064 23.1107 18.9797 22.851 18.2073C23.1932 18.1245 23.544 18.0829 23.896 18.0833ZM7.10433 10.3333C7.96076 10.3333 8.78211 10.6735 9.3877 11.2791C9.99328 11.8847 10.3335 12.7061 10.3335 13.5625C10.3335 14.4189 9.99328 15.2403 9.3877 15.8459C8.78211 16.4514 7.96076 16.7917 7.10433 16.7917C6.2479 16.7917 5.42655 16.4514 4.82096 15.8459C4.21538 15.2403 3.87516 14.4189 3.87516 13.5625C3.87516 12.7061 4.21538 11.8847 4.82096 11.2791C5.42655 10.6735 6.2479 10.3333 7.10433 10.3333ZM23.896 10.3333C24.7524 10.3333 25.5738 10.6735 26.1794 11.2791C26.785 11.8847 27.1252 12.7061 27.1252 13.5625C27.1252 14.4189 26.785 15.2403 26.1794 15.8459C25.5738 16.4514 24.7524 16.7917 23.896 16.7917C23.0396 16.7917 22.2182 16.4514 21.6126 15.8459C21.007 15.2403 20.6668 14.4189 20.6668 13.5625C20.6668 12.7061 21.007 11.8847 21.6126 11.2791C22.2182 10.6735 23.0396 10.3333 23.896 10.3333ZM7.10433 12.9167C6.93304 12.9167 6.76877 12.9847 6.64766 13.1058C6.52654 13.2269 6.4585 13.3912 6.4585 13.5625C6.4585 13.7338 6.52654 13.8981 6.64766 14.0192C6.76877 14.1403 6.93304 14.2083 7.10433 14.2083C7.27562 14.2083 7.43989 14.1403 7.561 14.0192C7.68212 13.8981 7.75016 13.7338 7.75016 13.5625C7.75016 13.3912 7.68212 13.2269 7.561 13.1058C7.43989 12.9847 7.27562 12.9167 7.10433 12.9167ZM23.896 12.9167C23.7247 12.9167 23.5604 12.9847 23.4393 13.1058C23.3182 13.2269 23.2502 13.3912 23.2502 13.5625C23.2502 13.7338 23.3182 13.8981 23.4393 14.0192C23.5604 14.1403 23.7247 14.2083 23.896 14.2083C24.0673 14.2083 24.2316 14.1403 24.3527 14.0192C24.4738 13.8981 24.5418 13.7338 24.5418 13.5625C24.5418 13.3912 24.4738 13.2269 24.3527 13.1058C24.2316 12.9847 24.0673 12.9167 23.896 12.9167ZM15.5002 2.58333C16.8704 2.58333 18.1846 3.12767 19.1535 4.09661C20.1225 5.06555 20.6668 6.37971 20.6668 7.75C20.6668 9.12028 20.1225 10.4344 19.1535 11.4034C18.1846 12.3723 16.8704 12.9167 15.5002 12.9167C14.1299 12.9167 12.8157 12.3723 11.8468 11.4034C10.8778 10.4344 10.3335 9.12028 10.3335 7.75C10.3335 6.37971 10.8778 5.06555 11.8468 4.09661C12.8157 3.12767 14.1299 2.58333 15.5002 2.58333ZM15.5002 5.16666C14.815 5.16666 14.1579 5.43883 13.6735 5.9233C13.189 6.40777 12.9168 7.06485 12.9168 7.75C12.9168 8.43514 13.189 9.09222 13.6735 9.57669C14.1579 10.0612 14.815 10.3333 15.5002 10.3333C16.1853 10.3333 16.8424 10.0612 17.3269 9.57669C17.8113 9.09222 18.0835 8.43514 18.0835 7.75C18.0835 7.06485 17.8113 6.40777 17.3269 5.9233C16.8424 5.43883 16.1853 5.16666 15.5002 5.16666Z" fill="white"/>
</svg>