<svg width="103" height="137" viewBox="0 0 103 137" fill="none" xmlns="http://www.w3.org/2000/svg">
<g id="Group">
<path id="Vector" d="M70.1234 17.0479C77.0591 28.2819 83.6779 46.4173 85.3476 75.4356L98.1913 91.105C101.226 94.9022 102.878 99.619 102.875 104.48V132.719C102.875 133.617 102.592 134.493 102.067 135.222C101.541 135.951 100.8 136.496 99.9476 136.78C99.0951 137.064 98.1749 137.073 97.3172 136.805C96.4595 136.537 95.7079 136.006 95.1688 135.288L85.5359 122.444C84.1146 120.543 81.9397 119.019 79.0969 117.563C77.2646 116.638 75.5521 115.919 73.7282 115.148L72.05 114.438C66.0562 118.103 58.7781 119.875 51.5 119.875C44.2219 119.875 36.9437 118.103 30.95 114.438C30.3677 114.695 29.8112 114.926 29.2546 115.157C27.4479 115.919 25.7354 116.638 23.9031 117.563C21.0603 119.019 18.8854 120.543 17.4641 122.444L7.83125 135.288C7.29212 136.006 6.54047 136.537 5.68278 136.805C4.82509 137.073 3.90485 137.064 3.0524 136.78C2.19995 136.496 1.45852 135.951 0.93312 135.222C0.407723 134.493 0.125 133.617 0.125 132.719V104.48C0.124908 99.6179 1.77975 94.901 4.81725 91.105L4.8515 91.0622L17.6696 75.4356C19.3564 46.9824 25.9666 28.907 32.8594 17.5874C36.8496 11.0199 40.9082 6.7815 44.0763 4.14425C45.6712 2.80649 47.395 1.6305 49.2224 0.633625C49.9152 0.231839 50.6992 0.0137331 51.5 0C52.3648 0 52.9556 0.231188 53.6406 0.548C53.9574 0.693563 54.377 0.899062 54.8822 1.19019C55.8926 1.75531 57.254 2.62013 58.8466 3.88737C62.0404 6.43044 66.1247 10.5576 70.1234 17.0479ZM64.3438 51.375C64.3438 41.9134 58.5897 34.25 51.5 34.25C44.4103 34.25 38.6562 41.9134 38.6562 51.375C38.6562 60.8366 44.4103 68.5 51.5 68.5C58.5897 68.5 64.3438 60.8366 64.3438 51.375Z" fill="white"/>
<path id="Vector_2" d="M51.4999 124.156C55.7811 124.156 60.0538 123.762 64.1638 122.966L54.9249 135.288C54.5261 135.819 54.009 136.251 53.4145 136.548C52.82 136.845 52.1645 137 51.4999 137C50.8352 137 50.1797 136.845 49.5852 136.548C48.9908 136.251 48.4737 135.819 48.0749 135.288L38.8359 122.966C42.9459 123.762 47.2272 124.156 51.4999 124.156Z" fill="white"/>
</g>
</svg>
